<svg xmlns="http://www.w3.org/2000/svg" xmlns:xlink="http://www.w3.org/1999/xlink" width="150" zoomAndPan="magnify" viewBox="0 0 112.5 33.749998" height="45" preserveAspectRatio="xMidYMid meet" version="1.0"><defs><g/></defs><g fill="#000000" fill-opacity="0.302"><g transform="translate(8.159008, 22.140111)"><g><path d="M 1.914062 0 L 7.171875 0 L 7.171875 -1.671875 L 2.199219 -1.671875 L 2.199219 -7.753906 L 7.171875 -7.753906 L 7.171875 -9.410156 L 1.914062 -9.410156 C 1.023438 -9.410156 0.539062 -8.910156 0.539062 -8.023438 L 0.539062 -1.390625 C 0.539062 -0.5 1.023438 0 1.914062 0 Z M 2.75 -3.882812 L 7.171875 -3.882812 L 7.171875 -5.542969 L 2.75 -5.542969 Z M 2.75 -3.882812 "/></g></g></g><g fill="#000000" fill-opacity="0.302"><g transform="translate(17.77984, 22.140111)"><g><path d="M 1.914062 0 L 5.515625 0 L 5.515625 -1.671875 L 2.199219 -1.671875 L 2.199219 -9.410156 L 0.539062 -9.410156 L 0.539062 -1.390625 C 0.539062 -0.5 1.023438 0 1.914062 0 Z M 1.914062 0 "/></g></g></g><g fill="#000000" fill-opacity="0.302"><g transform="translate(25.743626, 22.140111)"><g/></g></g><g fill="#000000" fill-opacity="0.302"><g transform="translate(32.77784, 22.140111)"><g><path d="M 1.914062 0 L 7.171875 0 L 7.171875 -1.671875 L 2.199219 -1.671875 L 2.199219 -7.753906 L 7.171875 -7.753906 L 7.171875 -9.410156 L 1.914062 -9.410156 C 1.023438 -9.410156 0.539062 -8.910156 0.539062 -8.023438 L 0.539062 -1.390625 C 0.539062 -0.5 1.023438 0 1.914062 0 Z M 1.914062 0 "/></g></g></g><g fill="#000000" fill-opacity="0.302"><g transform="translate(42.398671, 22.140111)"><g><path d="M 1.914062 0 L 5.785156 0 C 6.675781 0 7.171875 -0.5 7.171875 -1.390625 L 7.171875 -8.023438 C 7.171875 -8.910156 6.675781 -9.410156 5.785156 -9.410156 L 0.539062 -9.410156 L 0.539062 -7.753906 L 5.515625 -7.753906 L 5.515625 -1.671875 L 2.199219 -1.671875 L 2.199219 -7.199219 L 0.539062 -7.199219 L 0.539062 -1.390625 C 0.539062 -0.5 1.023438 0 1.914062 0 Z M 1.914062 0 "/></g></g></g><g fill="#000000" fill-opacity="0.302"><g transform="translate(52.019502, 22.140111)"><g><path d="M 0.539062 -8.023438 L 0.539062 0 L 2.199219 0 L 2.199219 -7.753906 L 9.382812 -7.753906 L 9.382812 0 L 11.042969 0 L 11.042969 -8.023438 C 11.042969 -8.910156 10.542969 -9.410156 9.652344 -9.410156 L 1.914062 -9.410156 C 1.023438 -9.410156 0.539062 -8.910156 0.539062 -8.023438 Z M 4.960938 0 L 6.621094 0 L 6.621094 -7.199219 L 4.960938 -7.199219 Z M 4.960938 0 "/></g></g></g><g fill="#000000" fill-opacity="0.302"><g transform="translate(65.506791, 22.140111)"><g><path d="M 1.914062 0 L 7.171875 0 L 7.171875 -1.671875 L 2.199219 -1.671875 L 2.199219 -7.753906 L 7.171875 -7.753906 L 7.171875 -9.410156 L 1.914062 -9.410156 C 1.023438 -9.410156 0.539062 -8.910156 0.539062 -8.023438 L 0.539062 -1.390625 C 0.539062 -0.5 1.023438 0 1.914062 0 Z M 2.75 -3.882812 L 7.171875 -3.882812 L 7.171875 -5.542969 L 2.75 -5.542969 Z M 2.75 -3.882812 "/></g></g></g><g fill="#000000" fill-opacity="0.302"><g transform="translate(75.127621, 22.140111)"><g><path d="M 0.539062 0 L 2.199219 0 L 2.199219 -3.882812 L 5.785156 -3.882812 C 6.675781 -3.882812 7.171875 -4.367188 7.171875 -5.257812 L 7.171875 -8.023438 C 7.171875 -8.910156 6.675781 -9.410156 5.785156 -9.410156 L 0.539062 -9.410156 Z M 2.199219 -5.542969 L 2.199219 -7.753906 L 5.515625 -7.753906 L 5.515625 -5.542969 Z M 3.964844 -3.332031 L 4.4375 0 L 6.109375 0 L 5.636719 -3.332031 Z M 3.964844 -3.332031 "/></g></g></g><g fill="#000000" fill-opacity="0.302"><g transform="translate(84.748452, 22.140111)"><g><path d="M 1.914062 0 L 7.171875 0 L 7.171875 -1.671875 L 2.199219 -1.671875 L 2.199219 -7.753906 L 7.171875 -7.753906 L 7.171875 -9.410156 L 1.914062 -9.410156 C 1.023438 -9.410156 0.539062 -8.910156 0.539062 -8.023438 L 0.539062 -1.390625 C 0.539062 -0.5 1.023438 0 1.914062 0 Z M 1.914062 0 "/></g></g></g><g fill="#000000" fill-opacity="0.302"><g transform="translate(94.369283, 22.140111)"><g><path d="M 0.539062 0 L 2.199219 0 L 2.199219 -9.410156 L 0.539062 -9.410156 Z M 0.539062 0 "/></g></g></g><g fill="#000000" fill-opacity="0.302"><g transform="translate(99.018953, 22.140111)"><g><path d="M 1.914062 0 L 5.785156 0 C 6.675781 0 7.171875 -0.5 7.171875 -1.390625 L 7.171875 -8.023438 C 7.171875 -8.910156 6.675781 -9.410156 5.785156 -9.410156 L 0.539062 -9.410156 L 0.539062 -7.753906 L 5.515625 -7.753906 L 5.515625 -1.671875 L 2.199219 -1.671875 L 2.199219 -7.199219 L 0.539062 -7.199219 L 0.539062 -1.390625 C 0.539062 -0.5 1.023438 0 1.914062 0 Z M 1.914062 0 "/></g></g></g><g fill="#000000" fill-opacity="0.502"><g transform="translate(7.563051, 21.544153)"><g><path d="M 1.914062 0 L 7.171875 0 L 7.171875 -1.671875 L 2.199219 -1.671875 L 2.199219 -7.753906 L 7.171875 -7.753906 L 7.171875 -9.410156 L 1.914062 -9.410156 C 1.023438 -9.410156 0.539062 -8.910156 0.539062 -8.023438 L 0.539062 -1.390625 C 0.539062 -0.5 1.023438 0 1.914062 0 Z M 2.75 -3.882812 L 7.171875 -3.882812 L 7.171875 -5.542969 L 2.75 -5.542969 Z M 2.75 -3.882812 "/></g></g></g><g fill="#000000" fill-opacity="0.502"><g transform="translate(17.183883, 21.544153)"><g><path d="M 1.914062 0 L 5.515625 0 L 5.515625 -1.671875 L 2.199219 -1.671875 L 2.199219 -9.410156 L 0.539062 -9.410156 L 0.539062 -1.390625 C 0.539062 -0.5 1.023438 0 1.914062 0 Z M 1.914062 0 "/></g></g></g><g fill="#000000" fill-opacity="0.502"><g transform="translate(25.147669, 21.544153)"><g/></g></g><g fill="#000000" fill-opacity="0.502"><g transform="translate(32.181883, 21.544153)"><g><path d="M 1.914062 0 L 7.171875 0 L 7.171875 -1.671875 L 2.199219 -1.671875 L 2.199219 -7.753906 L 7.171875 -7.753906 L 7.171875 -9.410156 L 1.914062 -9.410156 C 1.023438 -9.410156 0.539062 -8.910156 0.539062 -8.023438 L 0.539062 -1.390625 C 0.539062 -0.5 1.023438 0 1.914062 0 Z M 1.914062 0 "/></g></g></g><g fill="#000000" fill-opacity="0.502"><g transform="translate(41.802714, 21.544153)"><g><path d="M 1.914062 0 L 5.785156 0 C 6.675781 0 7.171875 -0.5 7.171875 -1.390625 L 7.171875 -8.023438 C 7.171875 -8.910156 6.675781 -9.410156 5.785156 -9.410156 L 0.539062 -9.410156 L 0.539062 -7.753906 L 5.515625 -7.753906 L 5.515625 -1.671875 L 2.199219 -1.671875 L 2.199219 -7.199219 L 0.539062 -7.199219 L 0.539062 -1.390625 C 0.539062 -0.5 1.023438 0 1.914062 0 Z M 1.914062 0 "/></g></g></g><g fill="#000000" fill-opacity="0.502"><g transform="translate(51.423545, 21.544153)"><g><path d="M 0.539062 -8.023438 L 0.539062 0 L 2.199219 0 L 2.199219 -7.753906 L 9.382812 -7.753906 L 9.382812 0 L 11.042969 0 L 11.042969 -8.023438 C 11.042969 -8.910156 10.542969 -9.410156 9.652344 -9.410156 L 1.914062 -9.410156 C 1.023438 -9.410156 0.539062 -8.910156 0.539062 -8.023438 Z M 4.960938 0 L 6.621094 0 L 6.621094 -7.199219 L 4.960938 -7.199219 Z M 4.960938 0 "/></g></g></g><g fill="#000000" fill-opacity="0.502"><g transform="translate(64.910834, 21.544153)"><g><path d="M 1.914062 0 L 7.171875 0 L 7.171875 -1.671875 L 2.199219 -1.671875 L 2.199219 -7.753906 L 7.171875 -7.753906 L 7.171875 -9.410156 L 1.914062 -9.410156 C 1.023438 -9.410156 0.539062 -8.910156 0.539062 -8.023438 L 0.539062 -1.390625 C 0.539062 -0.5 1.023438 0 1.914062 0 Z M 2.75 -3.882812 L 7.171875 -3.882812 L 7.171875 -5.542969 L 2.75 -5.542969 Z M 2.75 -3.882812 "/></g></g></g><g fill="#000000" fill-opacity="0.502"><g transform="translate(74.531664, 21.544153)"><g><path d="M 0.539062 0 L 2.199219 0 L 2.199219 -3.882812 L 5.785156 -3.882812 C 6.675781 -3.882812 7.171875 -4.367188 7.171875 -5.257812 L 7.171875 -8.023438 C 7.171875 -8.910156 6.675781 -9.410156 5.785156 -9.410156 L 0.539062 -9.410156 Z M 2.199219 -5.542969 L 2.199219 -7.753906 L 5.515625 -7.753906 L 5.515625 -5.542969 Z M 3.964844 -3.332031 L 4.4375 0 L 6.109375 0 L 5.636719 -3.332031 Z M 3.964844 -3.332031 "/></g></g></g><g fill="#000000" fill-opacity="0.502"><g transform="translate(84.152495, 21.544153)"><g><path d="M 1.914062 0 L 7.171875 0 L 7.171875 -1.671875 L 2.199219 -1.671875 L 2.199219 -7.753906 L 7.171875 -7.753906 L 7.171875 -9.410156 L 1.914062 -9.410156 C 1.023438 -9.410156 0.539062 -8.910156 0.539062 -8.023438 L 0.539062 -1.390625 C 0.539062 -0.5 1.023438 0 1.914062 0 Z M 1.914062 0 "/></g></g></g><g fill="#000000" fill-opacity="0.502"><g transform="translate(93.773326, 21.544153)"><g><path d="M 0.539062 0 L 2.199219 0 L 2.199219 -9.410156 L 0.539062 -9.410156 Z M 0.539062 0 "/></g></g></g><g fill="#000000" fill-opacity="0.502"><g transform="translate(98.422996, 21.544153)"><g><path d="M 1.914062 0 L 5.785156 0 C 6.675781 0 7.171875 -0.5 7.171875 -1.390625 L 7.171875 -8.023438 C 7.171875 -8.910156 6.675781 -9.410156 5.785156 -9.410156 L 0.539062 -9.410156 L 0.539062 -7.753906 L 5.515625 -7.753906 L 5.515625 -1.671875 L 2.199219 -1.671875 L 2.199219 -7.199219 L 0.539062 -7.199219 L 0.539062 -1.390625 C 0.539062 -0.5 1.023438 0 1.914062 0 Z M 1.914062 0 "/></g></g></g><g fill="#000000" fill-opacity="1"><g transform="translate(6.967094, 20.948196)"><g><path d="M 1.914062 0 L 7.171875 0 L 7.171875 -1.671875 L 2.199219 -1.671875 L 2.199219 -7.753906 L 7.171875 -7.753906 L 7.171875 -9.410156 L 1.914062 -9.410156 C 1.023438 -9.410156 0.539062 -8.910156 0.539062 -8.023438 L 0.539062 -1.390625 C 0.539062 -0.5 1.023438 0 1.914062 0 Z M 2.75 -3.882812 L 7.171875 -3.882812 L 7.171875 -5.542969 L 2.75 -5.542969 Z M 2.75 -3.882812 "/></g></g></g><g fill="#000000" fill-opacity="1"><g transform="translate(16.587926, 20.948196)"><g><path d="M 1.914062 0 L 5.515625 0 L 5.515625 -1.671875 L 2.199219 -1.671875 L 2.199219 -9.410156 L 0.539062 -9.410156 L 0.539062 -1.390625 C 0.539062 -0.5 1.023438 0 1.914062 0 Z M 1.914062 0 "/></g></g></g><g fill="#000000" fill-opacity="1"><g transform="translate(24.551712, 20.948196)"><g/></g></g><g fill="#000000" fill-opacity="1"><g transform="translate(31.585926, 20.948196)"><g><path d="M 1.914062 0 L 7.171875 0 L 7.171875 -1.671875 L 2.199219 -1.671875 L 2.199219 -7.753906 L 7.171875 -7.753906 L 7.171875 -9.410156 L 1.914062 -9.410156 C 1.023438 -9.410156 0.539062 -8.910156 0.539062 -8.023438 L 0.539062 -1.390625 C 0.539062 -0.5 1.023438 0 1.914062 0 Z M 1.914062 0 "/></g></g></g><g fill="#000000" fill-opacity="1"><g transform="translate(41.206757, 20.948196)"><g><path d="M 1.914062 0 L 5.785156 0 C 6.675781 0 7.171875 -0.5 7.171875 -1.390625 L 7.171875 -8.023438 C 7.171875 -8.910156 6.675781 -9.410156 5.785156 -9.410156 L 0.539062 -9.410156 L 0.539062 -7.753906 L 5.515625 -7.753906 L 5.515625 -1.671875 L 2.199219 -1.671875 L 2.199219 -7.199219 L 0.539062 -7.199219 L 0.539062 -1.390625 C 0.539062 -0.5 1.023438 0 1.914062 0 Z M 1.914062 0 "/></g></g></g><g fill="#000000" fill-opacity="1"><g transform="translate(50.827587, 20.948196)"><g><path d="M 0.539062 -8.023438 L 0.539062 0 L 2.199219 0 L 2.199219 -7.753906 L 9.382812 -7.753906 L 9.382812 0 L 11.042969 0 L 11.042969 -8.023438 C 11.042969 -8.910156 10.542969 -9.410156 9.652344 -9.410156 L 1.914062 -9.410156 C 1.023438 -9.410156 0.539062 -8.910156 0.539062 -8.023438 Z M 4.960938 0 L 6.621094 0 L 6.621094 -7.199219 L 4.960938 -7.199219 Z M 4.960938 0 "/></g></g></g><g fill="#000000" fill-opacity="1"><g transform="translate(64.314877, 20.948196)"><g><path d="M 1.914062 0 L 7.171875 0 L 7.171875 -1.671875 L 2.199219 -1.671875 L 2.199219 -7.753906 L 7.171875 -7.753906 L 7.171875 -9.410156 L 1.914062 -9.410156 C 1.023438 -9.410156 0.539062 -8.910156 0.539062 -8.023438 L 0.539062 -1.390625 C 0.539062 -0.5 1.023438 0 1.914062 0 Z M 2.75 -3.882812 L 7.171875 -3.882812 L 7.171875 -5.542969 L 2.75 -5.542969 Z M 2.75 -3.882812 "/></g></g></g><g fill="#000000" fill-opacity="1"><g transform="translate(73.935707, 20.948196)"><g><path d="M 0.539062 0 L 2.199219 0 L 2.199219 -3.882812 L 5.785156 -3.882812 C 6.675781 -3.882812 7.171875 -4.367188 7.171875 -5.257812 L 7.171875 -8.023438 C 7.171875 -8.910156 6.675781 -9.410156 5.785156 -9.410156 L 0.539062 -9.410156 Z M 2.199219 -5.542969 L 2.199219 -7.753906 L 5.515625 -7.753906 L 5.515625 -5.542969 Z M 3.964844 -3.332031 L 4.4375 0 L 6.109375 0 L 5.636719 -3.332031 Z M 3.964844 -3.332031 "/></g></g></g><g fill="#000000" fill-opacity="1"><g transform="translate(83.556538, 20.948196)"><g><path d="M 1.914062 0 L 7.171875 0 L 7.171875 -1.671875 L 2.199219 -1.671875 L 2.199219 -7.753906 L 7.171875 -7.753906 L 7.171875 -9.410156 L 1.914062 -9.410156 C 1.023438 -9.410156 0.539062 -8.910156 0.539062 -8.023438 L 0.539062 -1.390625 C 0.539062 -0.5 1.023438 0 1.914062 0 Z M 1.914062 0 "/></g></g></g><g fill="#000000" fill-opacity="1"><g transform="translate(93.177368, 20.948196)"><g><path d="M 0.539062 0 L 2.199219 0 L 2.199219 -9.410156 L 0.539062 -9.410156 Z M 0.539062 0 "/></g></g></g><g fill="#000000" fill-opacity="1"><g transform="translate(97.827039, 20.948196)"><g><path d="M 1.914062 0 L 5.785156 0 C 6.675781 0 7.171875 -0.5 7.171875 -1.390625 L 7.171875 -8.023438 C 7.171875 -8.910156 6.675781 -9.410156 5.785156 -9.410156 L 0.539062 -9.410156 L 0.539062 -7.753906 L 5.515625 -7.753906 L 5.515625 -1.671875 L 2.199219 -1.671875 L 2.199219 -7.199219 L 0.539062 -7.199219 L 0.539062 -1.390625 C 0.539062 -0.5 1.023438 0 1.914062 0 Z M 1.914062 0 "/></g></g></g></svg>