<svg xmlns="http://www.w3.org/2000/svg" xmlns:xlink="http://www.w3.org/1999/xlink" width="150" zoomAndPan="magnify" viewBox="0 0 112.5 33.749998" height="45" preserveAspectRatio="xMidYMid meet" version="1.0"><defs><g/><clipPath id="7fe7555e40"><path d="M 20.515625 0.484375 L 92.304688 0.484375 L 92.304688 33.386719 L 20.515625 33.386719 Z M 20.515625 0.484375 " clip-rule="nonzero"/></clipPath></defs><g clip-path="url(#7fe7555e40)"><path fill="#4d3800" d="M 88.054688 16.941406 C 90.683594 15.214844 92.238281 12.519531 92.238281 9.640625 C 92.238281 4.59375 87.507812 0.488281 81.699219 0.488281 C 79.542969 0.488281 77.472656 1.050781 75.707031 2.109375 C 74.042969 3.109375 72.757812 4.488281 71.976562 6.101562 L 40.835938 6.101562 C 40.058594 4.488281 38.769531 3.109375 37.105469 2.109375 C 35.339844 1.050781 33.269531 0.488281 31.113281 0.488281 C 25.304688 0.488281 20.578125 4.59375 20.578125 9.640625 C 20.578125 12.519531 22.128906 15.214844 24.757812 16.941406 C 22.128906 18.667969 20.578125 21.363281 20.578125 24.242188 C 20.578125 29.289062 25.304688 33.394531 31.113281 33.394531 C 33.269531 33.394531 35.339844 32.832031 37.105469 31.773438 C 38.769531 30.769531 40.058594 29.394531 40.835938 27.78125 L 71.976562 27.78125 C 72.757812 29.394531 74.042969 30.769531 75.707031 31.773438 C 77.472656 32.832031 79.542969 33.394531 81.699219 33.394531 C 87.507812 33.394531 92.238281 29.289062 92.238281 24.242188 C 92.238281 21.363281 90.683594 18.667969 88.054688 16.941406 Z M 79.265625 5.515625 C 79.296875 5.410156 79.332031 5.3125 79.375 5.214844 C 79.742188 4.355469 80.441406 3.5 81.28125 3.054688 C 81.980469 2.683594 82.972656 2.46875 83.515625 3.179688 C 84.367188 4.296875 83.605469 6.496094 82.648438 7.351562 C 82.097656 7.847656 81.195312 8.03125 80.488281 7.855469 C 80.035156 7.746094 79.621094 7.46875 79.386719 7.074219 C 79.113281 6.613281 79.109375 6.039062 79.265625 5.515625 Z M 74.113281 7.144531 C 74.304688 6.613281 74.574219 6.113281 74.914062 5.667969 C 75.210938 5.28125 75.570312 4.921875 76.023438 4.746094 C 76.4375 4.589844 76.953125 4.597656 77.3125 4.882812 C 77.523438 5.054688 77.660156 5.304688 77.734375 5.570312 C 78.050781 6.664062 77.992188 8.191406 77.273438 9.117188 C 77.273438 9.117188 77.273438 9.117188 77.269531 9.117188 C 76.503906 10.101562 74.636719 9.878906 74.074219 8.765625 C 73.824219 8.265625 73.925781 7.667969 74.113281 7.144531 Z M 81.929688 19.359375 C 81.199219 19.871094 80.175781 19.9375 79.375 19.550781 C 78.890625 19.316406 78.511719 18.960938 78.167969 18.5625 C 77.753906 18.085938 77.28125 17.675781 76.761719 17.332031 C 76.242188 16.992188 75.671875 16.722656 75.074219 16.539062 C 74.570312 16.382812 74.09375 16.175781 73.683594 15.824219 C 73.011719 15.246094 72.660156 14.277344 72.832031 13.402344 C 72.992188 12.59375 73.578125 11.882812 74.339844 11.578125 C 75.539062 11.097656 76.875 11.46875 78.042969 10.8125 C 79.109375 10.210938 80.28125 9.183594 81.535156 10.007812 C 82.789062 10.828125 82.320312 12.316406 82.203125 13.539062 C 82.070312 14.871094 82.949219 15.949219 82.992188 17.242188 C 83.019531 18.066406 82.605469 18.890625 81.929688 19.359375 Z M 83.742188 8.089844 C 84.152344 6.871094 85.871094 5.304688 87.234375 5.652344 C 88.097656 5.875 88.289062 6.871094 88.222656 7.664062 C 88.144531 8.613281 87.636719 9.59375 86.992188 10.269531 C 86.917969 10.347656 86.839844 10.421875 86.757812 10.488281 C 86.339844 10.835938 85.808594 11.058594 85.28125 10.988281 C 84.824219 10.925781 84.40625 10.652344 84.128906 10.277344 C 83.691406 9.695312 83.503906 8.792969 83.742188 8.089844 Z M 86.917969 15.949219 C 86.492188 16.304688 85.960938 16.605469 85.410156 16.539062 C 84.171875 16.394531 83.324219 14.710938 83.984375 13.652344 C 83.984375 13.648438 83.988281 13.648438 83.988281 13.648438 C 84.609375 12.652344 86.019531 12.074219 87.152344 12 C 87.425781 11.980469 87.707031 12.019531 87.941406 12.164062 C 88.332031 12.402344 88.515625 12.886719 88.507812 13.328125 C 88.5 13.816406 88.289062 14.277344 88.027344 14.6875 C 87.722656 15.164062 87.347656 15.589844 86.917969 15.949219 Z M 86.917969 15.949219 " fill-opacity="1" fill-rule="nonzero"/></g><path stroke-linecap="butt" transform="matrix(0.62522, 0, 0, 0.62522, 26.771421, 13.074047)" fill="none" stroke-linejoin="miter" d="M 7.875457 0.218947 C 7.438111 0.12523 6.994517 0.069 6.532179 0.069 C 6.07609 0.069 5.626248 0.106487 5.195149 0.175213 C 4.664086 0.262682 4.126775 0.418877 3.564473 0.625054 C 3.00217 0.843728 2.502346 1.168613 2.058752 1.593464 C 1.165316 2.449413 0.865422 3.51154 1.134077 4.779844 C 1.29652 5.604554 1.633902 6.360538 2.133726 7.022805 C 2.402381 7.391426 2.714771 7.703816 3.064648 7.959976 C 3.420773 8.209888 3.795641 8.409818 4.176757 8.559765 C 4.664086 8.759695 5.176406 8.884651 5.707469 8.928385 C 6.107329 8.965872 6.507188 8.965872 6.907048 8.928385 C 7.306907 8.897146 7.713014 8.77219 8.112874 8.559765 C 8.250325 8.491039 8.400273 8.397322 8.55022 8.291109 C 8.762645 8.141162 9.00631 7.922489 9.287461 7.63509 C 9.568612 7.353939 9.57486 7.06654 9.306204 6.772893 C 8.831371 6.279317 8.356538 6.179352 7.887953 6.466751 C 7.41312 6.760397 6.963278 6.92284 6.532179 6.966575 C 5.969877 7.022805 5.413823 6.935336 4.876511 6.716663 C 4.332953 6.491742 3.976828 6.123121 3.801889 5.604554 C 3.551977 4.911048 3.551977 4.354993 3.795641 3.930142 C 4.033058 3.517787 4.370439 3.205397 4.820281 3.005468 C 5.263875 2.805538 5.738708 2.699325 6.24478 2.680582 C 6.744605 2.668086 7.144464 2.705573 7.438111 2.79929 C 7.575563 2.849272 7.719262 2.899255 7.862962 2.949237 C 8.012909 2.99922 8.162856 3.024211 8.319051 3.024211 C 8.481494 3.024211 8.656433 2.868016 8.837619 2.549378 C 8.962575 2.330705 9.043796 2.099536 9.087531 1.843376 C 9.131266 1.599712 9.156257 1.3498 9.156257 1.09364 C 9.156257 0.887462 9.025053 0.700028 8.768893 0.537585 C 8.543972 0.412629 8.250325 0.306417 7.875457 0.218947 Z M 10.380826 3.780195 C 10.068436 4.39248 9.924737 5.073491 9.955976 5.816979 C 9.980967 6.335547 10.080932 6.785389 10.268366 7.166505 C 10.4558 7.566364 10.730703 7.89125 11.08058 8.14741 C 11.436705 8.409818 11.817821 8.603499 12.230176 8.740951 C 12.767487 8.928385 13.323542 8.997111 13.904587 8.953376 C 14.479385 8.897146 15.016696 8.722208 15.504025 8.428561 C 15.997602 8.14741 16.441196 7.785037 16.828559 7.366434 C 17.090967 7.085283 17.334631 6.766645 17.572048 6.41052 C 17.815712 6.054396 17.996899 5.685775 18.128103 5.310907 C 18.321784 4.686127 18.396758 3.992621 18.33428 3.217893 C 18.315537 2.992972 18.271802 2.774299 18.22182 2.54313 C 18.178085 2.318209 18.103111 2.105784 17.996899 1.905854 C 17.834456 1.599712 17.584544 1.324808 17.272153 1.068649 C 16.947268 0.812489 16.622382 0.63755 16.297496 0.543833 C 15.616486 0.350151 14.910484 0.350151 14.166995 0.550081 C 13.311046 0.787497 12.542566 1.199852 11.874051 1.799642 C 11.767839 1.893359 11.655378 1.999571 11.549166 2.105784 C 11.299253 2.349448 11.074332 2.618104 10.886898 2.899255 C 10.699464 3.180406 10.530774 3.474053 10.380826 3.780195 Z M 12.667522 5.029756 C 12.667522 4.642392 12.773735 4.367489 12.98616 4.211294 C 13.198586 4.061346 13.44225 3.998868 13.717153 4.030107 C 13.992057 4.067594 14.260712 4.186302 14.529368 4.379984 C 14.785528 4.579914 14.966714 4.829826 15.066679 5.129721 C 15.1479 5.404624 15.160396 5.660784 15.104166 5.904448 C 15.041688 6.154361 14.872997 6.348042 14.591846 6.485494 C 14.160747 6.710415 13.723401 6.616698 13.304798 6.204343 C 12.879948 5.798236 12.667522 5.410872 12.667522 5.029756 Z M 21.976749 0.262682 C 21.895528 0.212699 21.751829 0.150221 21.551899 0.0939912 C 21.389456 0.0565044 21.202022 0.037761 21.002092 0.0190175 C 20.795915 0.000274135 20.614728 0.0127697 20.458533 0.0502566 C 20.314834 0.0877434 20.196125 0.168965 20.096161 0.300169 C 19.952461 0.475107 19.827505 0.700028 19.72754 0.987427 C 19.602584 1.312313 19.477628 1.737163 19.365168 2.274475 C 19.258955 2.811786 19.15899 3.36784 19.090264 3.955134 C 19.021538 4.542427 18.971556 5.117225 18.952813 5.67328 C 18.927821 6.229334 18.946565 6.691672 19.002795 7.054044 C 19.027786 7.241478 19.065273 7.441408 19.133999 7.653833 C 19.196477 7.866259 19.315185 8.028702 19.477628 8.14741 C 19.658814 8.284861 20.052426 8.409818 20.664711 8.509782 C 21.2645 8.609747 21.589386 8.466048 21.63312 8.09118 C 21.639368 7.991215 21.63312 7.885002 21.614377 7.778789 C 21.589386 7.678825 21.57689 7.572612 21.564394 7.466399 C 21.451934 6.785389 21.414447 6.0419 21.445686 5.229686 C 21.483173 4.411223 21.564394 3.611505 21.708094 2.818033 C 22.245405 3.617752 22.71399 4.386232 23.120097 5.135969 C 23.519957 5.885705 23.888577 6.722911 24.219711 7.647586 C 24.244702 7.83502 24.288437 8.022454 24.357163 8.209888 C 24.425888 8.40357 24.532101 8.553517 24.688296 8.665977 C 24.775765 8.734703 24.93196 8.809677 25.163129 8.878403 C 25.38805 8.947129 25.625467 8.997111 25.862883 9.015854 C 26.106548 9.040846 26.325221 9.022102 26.512655 8.97212 C 26.706337 8.91589 26.812549 8.797181 26.837541 8.609747 C 26.843788 8.51603 26.837541 8.409818 26.818797 8.303605 C 26.793806 8.197392 26.78131 8.09118 26.768815 7.984967 C 26.61262 7.022805 26.600124 5.948183 26.718832 4.748605 C 26.843788 3.549026 27.049966 2.461909 27.343613 1.474756 C 27.424834 1.193605 27.399843 0.993675 27.281135 0.881214 C 27.162426 0.762506 26.987488 0.675037 26.756319 0.612559 C 26.593876 0.58132 26.41269 0.556329 26.206512 0.537585 C 26.000335 0.518842 25.819149 0.531337 25.662953 0.568824 C 25.525502 0.606311 25.406794 0.69378 25.300581 0.818736 C 25.169377 0.987427 25.044421 1.218596 24.93196 1.499747 C 24.838243 1.730916 24.750774 2.012067 24.669553 2.3432 C 24.588331 2.680582 24.519605 3.036707 24.45088 3.42407 C 23.907321 2.555626 23.363762 1.780898 22.826451 1.099888 C 22.720238 0.981179 22.607778 0.856223 22.495317 0.725019 C 22.376609 0.606311 22.270396 0.493851 22.151688 0.387638 C 22.08921 0.337656 22.03298 0.300169 21.976749 0.262682 Z M 28.055862 1.268578 C 27.974641 1.362295 27.937154 1.505995 27.94965 1.687181 C 27.962145 1.868367 27.974641 2.005819 27.987136 2.099536 C 27.999632 2.449413 28.049614 2.793042 28.143331 3.124176 C 28.193314 3.317858 28.237048 3.486548 28.287031 3.624 C 28.330766 3.773947 28.461969 3.892656 28.661899 3.980125 C 28.880572 4.086338 29.136732 4.142568 29.405388 4.155063 C 29.674043 4.167559 29.930203 4.180055 30.186363 4.19255 C 30.311319 4.205046 30.48001 4.236285 30.692435 4.273772 C 30.898613 4.311258 31.036064 4.404976 31.092295 4.561171 C 31.198507 4.829826 31.273481 5.085986 31.329711 5.323403 C 31.448419 5.810731 31.535889 6.304308 31.598367 6.797884 C 31.654597 7.297709 31.76081 7.778789 31.910757 8.253622 C 31.954492 8.409818 32.01697 8.57226 32.098191 8.753447 C 32.141926 8.859659 32.223147 8.928385 32.348103 8.959624 C 32.460564 8.990863 32.573024 8.997111 32.679237 8.997111 C 32.922901 8.997111 33.204052 8.97212 33.503947 8.909642 C 33.810089 8.853412 34.060001 8.753447 34.272427 8.603499 C 34.416126 8.497287 34.4911 8.328596 34.503595 8.09118 C 34.516091 7.660081 34.478604 7.203991 34.409878 6.716663 C 34.334905 6.235582 34.278674 5.773244 34.23494 5.32965 C 34.209949 5.123473 34.166214 4.861065 34.116231 4.554923 C 34.053753 4.242533 34.097488 3.998868 34.228692 3.830178 C 34.3474 3.667735 34.522339 3.542779 34.741012 3.449062 C 34.959685 3.361592 35.159615 3.280371 35.347049 3.199149 C 35.478253 3.142919 35.634448 3.067946 35.809386 2.986724 C 35.978077 2.905503 36.103033 2.793042 36.171759 2.649343 C 36.277971 2.411926 36.290467 2.043306 36.215493 1.549729 C 36.128024 1.056153 36.021812 0.69378 35.865616 0.468859 C 35.734413 0.281425 35.528235 0.200204 35.25958 0.231443 C 35.015915 0.26893 34.784746 0.32516 34.54733 0.412629 C 34.316161 0.493851 34.084992 0.556329 33.853824 0.606311 C 33.135326 0.750011 32.423077 0.89371 31.704579 1.024914 C 30.986082 1.168613 30.267585 1.231091 29.536592 1.231091 C 29.186715 1.231091 28.855581 1.212348 28.536943 1.174861 C 28.305774 1.143622 28.137084 1.174861 28.055862 1.268578 Z M 41.932234 6.797884 C 42.094676 7.341443 42.238376 7.828772 42.344589 8.25987 C 42.413314 8.591004 42.53827 8.77219 42.725705 8.815925 C 42.906891 8.865907 43.125564 8.847164 43.381724 8.778438 C 43.56291 8.728456 43.750344 8.65973 43.956522 8.559765 C 44.162699 8.466048 44.33139 8.34734 44.47509 8.216136 C 44.581302 8.122419 44.656276 7.972471 44.693763 7.772542 C 44.718754 7.541373 44.712506 7.253974 44.668771 6.910345 C 44.618789 6.566716 44.493833 6.048148 44.281408 5.354642 C 44.068982 4.661135 43.825318 3.961382 43.531671 3.236636 C 43.238024 2.505643 42.913139 1.843376 42.56951 1.243587 C 42.22588 0.643798 41.888499 0.256434 41.576109 0.0814956 C 41.388675 -0.0684517 41.113771 -0.174664 40.745151 -0.237142 C 40.376531 -0.293373 40.082884 -0.29962 39.864211 -0.249638 C 39.63929 -0.205903 39.445608 -0.0871951 39.283165 0.0939912 C 39.120722 0.275177 38.977023 0.456364 38.864562 0.631302 C 38.639641 0.987427 38.402225 1.456012 38.164808 2.024562 C 37.921144 2.605608 37.702471 3.211645 37.502541 3.836425 C 37.302611 4.473701 37.133921 5.079738 36.996469 5.679527 C 36.859017 6.273069 36.784044 6.766645 36.7653 7.154009 C 36.752805 7.297709 36.752805 7.441408 36.759052 7.591355 C 36.7653 7.74755 36.784044 7.885002 36.82153 8.022454 C 36.865265 8.20364 36.946486 8.341092 37.071443 8.441057 C 37.208894 8.559765 37.39008 8.65973 37.608754 8.740951 C 37.821179 8.822173 38.021109 8.878403 38.202295 8.903394 C 38.464703 8.953376 38.683376 8.947129 38.858314 8.890898 C 39.039501 8.82842 39.151961 8.634738 39.208191 8.303605 C 39.251926 7.959976 39.320652 7.57886 39.414369 7.147761 C 39.764246 7.172752 40.195344 7.141513 40.713912 7.06654 C 41.226232 6.997814 41.638587 6.904097 41.932234 6.797884 Z M 39.69552 6.004413 C 39.939184 5.117225 40.220335 4.286267 40.551469 3.530283 C 40.926337 4.242533 41.263719 4.998517 41.569861 5.78574 C 40.913842 5.941935 40.289061 6.016909 39.69552 6.004413 Z M 41.950977 -2.448865 C 41.851012 -2.555077 41.71356 -2.561325 41.551118 -2.455113 C 40.870107 -2.011519 40.295309 -1.574172 39.820476 -1.143074 C 39.770494 -1.093091 39.764246 -1.030613 39.80798 -0.961888 C 39.95168 -0.711975 40.126618 -0.543285 40.339044 -0.449568 C 40.470248 -0.374594 40.570212 -0.349603 40.645186 -0.374594 C 40.951328 -0.480807 41.263719 -0.593267 41.576109 -0.69948 C 41.882251 -0.805693 42.182146 -0.924401 42.475792 -1.0681 C 42.619492 -1.130578 42.669474 -1.218048 42.631988 -1.336756 C 42.438306 -1.792845 42.207137 -2.167714 41.950977 -2.448865 Z M 52.141144 0.218947 C 51.69755 0.12523 51.253956 0.069 50.797867 0.069 C 50.341777 0.069 49.885687 0.106487 49.454589 0.175213 C 48.929773 0.262682 48.386215 0.418877 47.823912 0.625054 C 47.26161 0.843728 46.768033 1.168613 46.318192 1.593464 C 45.431003 2.449413 45.124861 3.51154 45.393517 4.779844 C 45.55596 5.604554 45.893341 6.360538 46.399413 7.022805 C 46.668069 7.391426 46.974211 7.703816 47.330336 7.959976 C 47.680213 8.209888 48.055081 8.409818 48.442445 8.559765 C 48.929773 8.759695 49.435845 8.884651 49.973157 8.928385 C 50.366768 8.965872 50.766628 8.965872 51.172735 8.928385 C 51.572594 8.897146 51.972454 8.77219 52.372313 8.559765 C 52.516013 8.491039 52.659712 8.397322 52.809659 8.291109 C 53.022085 8.141162 53.271997 7.922489 53.553148 7.63509 C 53.834299 7.353939 53.840547 7.06654 53.565644 6.772893 C 53.09081 6.279317 52.622225 6.179352 52.147392 6.466751 C 51.678807 6.760397 51.222717 6.92284 50.797867 6.966575 C 50.235564 7.022805 49.67951 6.935336 49.135951 6.716663 C 48.592392 6.491742 48.236267 6.123121 48.061329 5.604554 C 47.811417 4.911048 47.811417 4.354993 48.055081 3.930142 C 48.292497 3.517787 48.636127 3.205397 49.079721 3.005468 C 49.523315 2.805538 49.998148 2.699325 50.50422 2.680582 C 51.010292 2.668086 51.403904 2.705573 51.69755 2.79929 C 51.84125 2.849272 51.978701 2.899255 52.128649 2.949237 C 52.272348 2.99922 52.428543 3.024211 52.578491 3.024211 C 52.740933 3.024211 52.915872 2.868016 53.097058 2.549378 C 53.222014 2.330705 53.303236 2.099536 53.353218 1.843376 C 53.390705 1.599712 53.415696 1.3498 53.415696 1.09364 C 53.415696 0.887462 53.284492 0.700028 53.028332 0.537585 C 52.809659 0.412629 52.516013 0.306417 52.141144 0.218947 Z M 54.352867 1.268578 C 54.271645 1.362295 54.234159 1.505995 54.246654 1.687181 C 54.25915 1.868367 54.271645 2.005819 54.284141 2.099536 C 54.296637 2.449413 54.346619 2.793042 54.440336 3.124176 C 54.490318 3.317858 54.534053 3.486548 54.584035 3.624 C 54.62777 3.773947 54.758974 3.892656 54.958904 3.980125 C 55.177577 4.086338 55.433737 4.142568 55.702392 4.155063 C 55.971048 4.167559 56.227208 4.180055 56.483368 4.19255 C 56.608324 4.205046 56.777014 4.236285 56.98944 4.273772 C 57.195617 4.311258 57.333069 4.404976 57.389299 4.561171 C 57.495512 4.829826 57.570486 5.085986 57.626716 5.323403 C 57.745424 5.810731 57.832893 6.304308 57.895371 6.797884 C 57.951602 7.297709 58.057814 7.778789 58.207761 8.253622 C 58.251496 8.409818 58.313974 8.57226 58.395196 8.753447 C 58.43893 8.859659 58.520152 8.928385 58.645108 8.959624 C 58.757568 8.990863 58.870029 8.997111 58.976241 8.997111 C 59.219906 8.997111 59.501057 8.97212 59.800951 8.909642 C 60.107094 8.853412 60.357006 8.753447 60.569431 8.603499 C 60.713131 8.497287 60.788104 8.328596 60.8006 8.09118 C 60.813096 7.660081 60.775609 7.203991 60.706883 6.716663 C 60.631909 6.235582 60.575679 5.773244 60.531944 5.32965 C 60.506953 5.123473 60.463219 4.861065 60.413236 4.554923 C 60.350758 4.242533 60.394493 3.998868 60.525697 3.830178 C 60.644405 3.667735 60.819343 3.542779 61.038016 3.449062 C 61.25669 3.361592 61.456619 3.280371 61.644053 3.199149 C 61.775257 3.142919 61.931452 3.067946 62.106391 2.986724 C 62.275082 2.905503 62.400038 2.793042 62.468763 2.649343 C 62.574976 2.411926 62.587472 2.043306 62.512498 1.549729 C 62.425029 1.056153 62.318816 0.69378 62.162621 0.468859 C 62.031417 0.281425 61.82524 0.200204 61.556584 0.231443 C 61.31292 0.26893 61.081751 0.32516 60.844335 0.412629 C 60.613166 0.493851 60.381997 0.556329 60.150828 0.606311 C 59.432331 0.750011 58.720081 0.89371 58.001584 1.024914 C 57.283087 1.168613 56.564589 1.231091 55.833596 1.231091 C 55.483719 1.231091 55.152586 1.212348 54.833948 1.174861 C 54.596531 1.143622 54.434088 1.174861 54.352867 1.268578 Z M 63.905758 0.631302 C 63.762059 0.700028 63.649598 0.806241 63.568377 0.956188 C 63.462164 1.143622 63.374695 1.393534 63.318465 1.705924 C 63.249739 2.055801 63.212252 2.499396 63.212252 3.05545 C 63.212252 3.605257 63.237243 4.173807 63.293473 4.754853 C 63.349704 5.342146 63.424677 5.910696 63.53089 6.460503 C 63.637103 7.016557 63.755811 7.466399 63.89951 7.810028 C 63.968236 7.997463 64.061953 8.184897 64.180662 8.372331 C 64.29937 8.559765 64.455565 8.697216 64.66799 8.778438 C 64.949141 8.897146 65.361496 8.934633 65.917551 8.903394 C 66.473605 8.872155 66.929695 8.840916 67.279572 8.815925 C 67.85437 8.797181 68.410424 8.740951 68.947736 8.672225 C 69.491294 8.603499 69.934889 8.51603 70.284765 8.409818 C 70.522182 8.334844 70.703368 8.266118 70.834572 8.197392 C 71.034502 8.09118 71.178201 7.966223 71.259423 7.828772 C 71.396875 7.585107 71.446857 7.228983 71.40937 6.747902 C 71.384379 6.541724 71.340644 6.360538 71.259423 6.198095 C 71.178201 6.048148 71.04075 5.973174 70.859563 5.979422 C 70.772094 5.991918 70.672129 6.010661 70.559669 6.0419 C 70.509686 6.060643 70.453456 6.073139 70.409722 6.091882 C 70.359739 6.116874 70.316005 6.129369 70.266022 6.141865 C 69.809932 6.279317 69.316356 6.398025 68.785293 6.491742 C 68.254229 6.585459 67.704423 6.647937 67.154616 6.691672 C 67.010916 6.704167 66.879713 6.716663 66.767252 6.729158 C 66.66104 6.735406 66.561075 6.741654 66.473605 6.741654 C 66.354897 6.373034 66.267428 5.998165 66.192454 5.623297 C 66.729765 5.58581 67.260829 5.510837 67.79814 5.410872 C 68.335451 5.310907 68.666584 5.167208 68.797788 4.992269 C 68.904001 4.84857 68.953983 4.554923 68.953983 4.092585 C 68.953983 3.636496 68.779045 3.411575 68.416672 3.399079 C 68.235486 3.399079 67.904352 3.417823 67.429519 3.461557 C 66.948438 3.51154 66.454862 3.56777 65.936294 3.624 C 65.905055 3.180406 65.886312 2.705573 65.898807 2.211997 C 66.504844 2.112032 67.104634 2.043306 67.685679 2.024562 C 68.260477 1.999571 68.885258 2.037058 69.56002 2.143271 C 69.653737 2.162014 69.753702 2.180758 69.859915 2.199501 C 69.95988 2.218244 70.059845 2.224492 70.166057 2.211997 C 70.52843 2.193253 70.672129 1.912102 70.597156 1.374791 C 70.522182 0.843728 70.422217 0.493851 70.291013 0.32516 C 70.172305 0.187708 70.01611 0.0877434 69.81618 0.0315132 C 69.616251 -0.0309649 69.422569 -0.0746995 69.241382 -0.105939 C 68.522885 -0.205903 67.704423 -0.193408 66.804739 -0.0622039 C 65.905055 0.0627522 65.130328 0.231443 64.493052 0.443868 C 64.393087 0.481355 64.293122 0.512594 64.193157 0.537585 C 64.086944 0.562576 63.993227 0.600063 63.905758 0.631302 Z M 75.008105 0.262682 C 74.926883 0.212699 74.783184 0.150221 74.583254 0.0939912 C 74.420811 0.0565044 74.233377 0.037761 74.033448 0.0190175 C 73.82727 0.000274135 73.646084 0.0127697 73.489889 0.0502566 C 73.352437 0.0877434 73.233729 0.168965 73.127516 0.300169 C 72.983817 0.475107 72.865108 0.700028 72.765143 0.987427 C 72.63394 1.312313 72.508984 1.737163 72.402771 2.274475 C 72.29031 2.811786 72.196593 3.36784 72.127868 3.955134 C 72.052894 4.542427 72.009159 5.117225 71.984168 5.67328 C 71.959177 6.229334 71.97792 6.691672 72.03415 7.054044 C 72.059142 7.241478 72.102876 7.441408 72.165354 7.653833 C 72.227832 7.866259 72.346541 8.028702 72.508984 8.14741 C 72.696418 8.284861 73.083781 8.409818 73.696066 8.509782 C 74.295855 8.609747 74.620741 8.466048 74.670723 8.09118 C 74.670723 7.991215 74.670723 7.885002 74.645732 7.778789 C 74.620741 7.678825 74.608245 7.572612 74.59575 7.466399 C 74.483289 6.785389 74.445803 6.0419 74.483289 5.229686 C 74.514528 4.411223 74.59575 3.611505 74.739449 2.818033 C 75.27676 3.617752 75.745346 4.386232 76.151453 5.135969 C 76.55756 5.885705 76.926181 6.722911 77.251066 7.647586 C 77.276058 7.83502 77.319792 8.022454 77.394766 8.209888 C 77.457244 8.40357 77.569704 8.553517 77.719652 8.665977 C 77.807121 8.734703 77.969564 8.809677 78.194485 8.878403 C 78.425653 8.947129 78.656822 8.997111 78.900486 9.015854 C 79.137903 9.040846 79.356576 9.022102 79.550258 8.97212 C 79.74394 8.91589 79.850153 8.797181 79.868896 8.609747 C 79.875144 8.51603 79.868896 8.409818 79.8564 8.303605 C 79.831409 8.197392 79.812666 8.09118 79.80017 7.984967 C 79.650223 7.022805 79.631479 5.948183 79.756435 4.748605 C 79.875144 3.549026 80.081321 2.461909 80.374968 1.474756 C 80.456189 1.193605 80.431198 0.993675 80.318738 0.881214 C 80.193782 0.762506 80.018843 0.675037 79.787674 0.612559 C 79.625232 0.58132 79.444045 0.556329 79.237868 0.537585 C 79.03169 0.518842 78.850504 0.531337 78.694309 0.568824 C 78.556857 0.606311 78.444397 0.69378 78.338184 0.818736 C 78.200732 0.987427 78.075776 1.218596 77.969564 1.499747 C 77.875847 1.730916 77.78213 2.012067 77.700908 2.3432 C 77.619687 2.680582 77.550961 3.036707 77.488483 3.42407 C 76.938676 2.555626 76.395117 1.780898 75.857806 1.099888 C 75.751593 0.981179 75.639133 0.856223 75.526673 0.725019 C 75.414212 0.606311 75.301752 0.493851 75.183043 0.387638 C 75.126813 0.337656 75.064335 0.300169 75.008105 0.262682 Z M 81.374617 3.780195 C 81.068474 4.39248 80.924775 5.073491 80.956014 5.816979 C 80.981005 6.335547 81.08097 6.785389 81.268404 7.166505 C 81.455838 7.566364 81.730741 7.89125 82.080618 8.14741 C 82.430495 8.409818 82.817859 8.603499 83.230214 8.740951 C 83.767525 8.928385 84.32358 8.997111 84.904625 8.953376 C 85.479423 8.897146 86.010487 8.722208 86.504063 8.428561 C 86.99764 8.14741 87.441234 7.785037 87.828597 7.366434 C 88.084757 7.085283 88.33467 6.766645 88.572086 6.41052 C 88.809503 6.054396 88.996937 5.685775 89.121893 5.310907 C 89.321823 4.686127 89.390548 3.992621 89.334318 3.217893 C 89.309327 2.992972 89.27184 2.774299 89.221858 2.54313 C 89.178123 2.318209 89.096902 2.105784 88.996937 1.905854 C 88.828246 1.599712 88.584582 1.324808 88.265944 1.068649 C 87.947306 0.812489 87.62242 0.63755 87.297534 0.543833 C 86.616524 0.350151 85.904274 0.350151 85.167033 0.550081 C 84.304836 0.787497 83.536357 1.199852 82.874089 1.799642 C 82.767877 1.893359 82.655416 1.999571 82.549204 2.105784 C 82.299291 2.349448 82.074371 2.618104 81.886936 2.899255 C 81.699502 3.180406 81.530812 3.474053 81.374617 3.780195 Z M 83.66756 5.029756 C 83.66756 4.642392 83.773773 4.367489 83.986198 4.211294 C 84.192376 4.061346 84.442288 3.998868 84.717191 4.030107 C 84.992095 4.067594 85.26075 4.186302 85.523158 4.379984 C 85.785566 4.579914 85.966752 4.829826 86.066717 5.129721 C 86.147938 5.404624 86.160434 5.660784 86.097956 5.904448 C 86.041726 6.154361 85.873035 6.348042 85.591884 6.485494 C 85.154538 6.710415 84.723439 6.616698 84.298589 6.204343 C 83.879986 5.798236 83.66756 5.410872 83.66756 5.029756 Z M 95.163519 4.148816 C 94.651199 3.867664 94.370048 3.705222 94.30757 3.642744 C 93.570329 3.16791 93.451621 2.849272 93.957693 2.680582 C 94.201357 2.680582 94.432526 2.68683 94.644951 2.711821 L 95.057306 2.818033 C 95.307218 2.868016 95.55713 2.930494 95.819538 2.99922 C 96.063202 3.061698 96.250637 3.036707 96.375593 2.936742 C 96.38184 2.936742 96.394336 2.924246 96.413079 2.905503 C 96.563027 2.774299 96.613009 2.593113 96.550531 2.361944 C 96.494301 2.130775 96.413079 1.949589 96.319362 1.824633 C 96.300619 1.799642 96.288123 1.780898 96.275628 1.768403 C 96.313115 1.674685 96.238141 1.587216 96.050707 1.505995 C 95.894512 1.437269 95.763308 1.368543 95.657095 1.299817 C 95.538387 1.249835 95.450918 1.2061 95.394687 1.181109 C 95.225997 1.124879 95.04481 1.062401 94.844881 0.993675 C 93.145478 0.824984 91.920909 1.056153 91.152429 1.680933 C 90.708835 2.037058 90.427684 2.455661 90.302728 2.936742 C 90.171524 3.417823 90.265241 3.892656 90.590127 4.367489 C 90.715083 4.567418 91.239898 4.979773 92.139582 5.604554 C 92.77061 6.035652 93.107991 6.279317 93.157974 6.341795 C 93.157974 6.35429 93.164222 6.360538 93.170469 6.373034 C 93.176717 6.385529 93.182965 6.391777 93.195461 6.398025 C 93.295425 6.585459 93.251691 6.729158 93.070505 6.829123 C 93.014274 6.86661 92.964292 6.891601 92.945548 6.904097 C 92.420733 7.016557 91.864679 6.92284 91.277385 6.641689 C 91.014977 6.516733 90.783809 6.360538 90.583879 6.1856 C 90.571383 6.179352 90.558888 6.173104 90.546392 6.166856 C 90.533896 6.166856 90.527649 6.154361 90.521401 6.141865 C 90.440179 6.073139 90.333967 6.010661 90.221506 5.954431 C 90.09655 5.891953 90.002833 5.941935 89.940355 6.091882 C 89.884125 6.235582 89.846638 6.404273 89.84039 6.616698 C 89.827895 6.829123 89.815399 7.004062 89.815399 7.147761 L 89.815399 7.197744 C 89.821647 7.310204 89.865381 7.422665 89.952851 7.516382 C 89.952851 7.528877 89.959098 7.535125 89.965346 7.541373 C 89.971594 7.553868 89.977842 7.560116 89.990337 7.560116 C 89.990337 7.572612 89.996585 7.585107 90.002833 7.585107 L 90.027824 7.603851 C 90.184019 7.778789 90.371453 7.941232 90.596374 8.072436 L 91.714731 8.591004 C 91.864679 8.640986 92.05836 8.690969 92.283281 8.734703 C 92.252042 8.784686 92.545689 8.82842 93.164222 8.865907 L 93.170469 8.859659 C 93.170469 8.859659 93.170469 8.853412 93.176717 8.847164 C 93.670294 8.872155 94.151375 8.834668 94.613712 8.734703 C 95.069802 8.640986 95.463413 8.478543 95.788299 8.247375 C 96.281876 7.909993 96.631753 7.49139 96.819187 6.985318 C 97.012869 6.485494 97.006621 6.035652 96.819187 5.635793 C 96.631753 5.235933 96.294371 4.886056 95.81329 4.59241 C 95.794547 4.586162 95.782051 4.573666 95.769556 4.567418 Z M 95.163519 4.148816 " stroke="#4d3800" stroke-width="0.9" stroke-opacity="1" stroke-miterlimit="4"/><g fill="#ffffff" fill-opacity="1"><g transform="translate(27.318489, 18.701025)"><g><path d="M 4.378906 -5.492188 C 4.101562 -5.550781 3.824219 -5.582031 3.539062 -5.582031 C 3.253906 -5.582031 2.972656 -5.5625 2.699219 -5.515625 C 2.371094 -5.460938 2.03125 -5.367188 1.679688 -5.234375 C 1.328125 -5.097656 1.019531 -4.898438 0.738281 -4.628906 C 0.183594 -4.09375 -0.0078125 -3.433594 0.160156 -2.636719 C 0.265625 -2.121094 0.472656 -1.652344 0.789062 -1.234375 C 0.957031 -1.003906 1.148438 -0.808594 1.371094 -0.652344 C 1.589844 -0.496094 1.824219 -0.371094 2.066406 -0.273438 C 2.371094 -0.148438 2.6875 -0.0742188 3.023438 -0.0429688 C 3.269531 -0.0234375 3.519531 -0.0234375 3.773438 -0.0429688 C 4.023438 -0.0664062 4.273438 -0.144531 4.523438 -0.273438 C 4.613281 -0.320312 4.703125 -0.378906 4.800781 -0.441406 C 4.929688 -0.539062 5.085938 -0.675781 5.261719 -0.855469 C 5.4375 -1.03125 5.441406 -1.207031 5.273438 -1.390625 C 4.976562 -1.699219 4.679688 -1.761719 4.386719 -1.582031 C 4.089844 -1.398438 3.804688 -1.296875 3.539062 -1.269531 C 3.1875 -1.234375 2.839844 -1.289062 2.503906 -1.429688 C 2.160156 -1.566406 1.9375 -1.796875 1.828125 -2.121094 C 1.675781 -2.558594 1.675781 -2.90625 1.824219 -3.167969 C 1.972656 -3.429688 2.1875 -3.625 2.464844 -3.746094 C 2.742188 -3.871094 3.039062 -3.9375 3.355469 -3.949219 C 3.671875 -3.960938 3.917969 -3.933594 4.101562 -3.875 C 4.191406 -3.847656 4.277344 -3.8125 4.371094 -3.785156 C 4.460938 -3.75 4.558594 -3.738281 4.652344 -3.738281 C 4.753906 -3.738281 4.863281 -3.835938 4.980469 -4.035156 C 5.054688 -4.167969 5.105469 -4.316406 5.136719 -4.472656 C 5.160156 -4.625 5.175781 -4.785156 5.175781 -4.941406 C 5.175781 -5.074219 5.097656 -5.191406 4.933594 -5.289062 C 4.796875 -5.371094 4.613281 -5.4375 4.378906 -5.492188 Z M 4.378906 -5.492188 "/></g></g><g transform="translate(32.978437, 18.701025)"><g><path d="M 0.28125 -3.265625 C 0.0898438 -2.878906 0 -2.453125 0.0195312 -1.988281 C 0.03125 -1.667969 0.09375 -1.382812 0.210938 -1.148438 C 0.328125 -0.898438 0.5 -0.691406 0.722656 -0.53125 C 0.941406 -0.371094 1.183594 -0.25 1.441406 -0.160156 C 1.777344 -0.0429688 2.125 0 2.488281 -0.03125 C 2.847656 -0.0664062 3.179688 -0.171875 3.488281 -0.355469 C 3.796875 -0.535156 4.074219 -0.757812 4.316406 -1.023438 C 4.476562 -1.199219 4.628906 -1.394531 4.78125 -1.621094 C 4.929688 -1.84375 5.042969 -2.074219 5.125 -2.308594 C 5.25 -2.695312 5.292969 -3.132812 5.257812 -3.617188 C 5.242188 -3.753906 5.214844 -3.894531 5.1875 -4.035156 C 5.15625 -4.175781 5.109375 -4.3125 5.042969 -4.4375 C 4.941406 -4.625 4.789062 -4.800781 4.589844 -4.960938 C 4.390625 -5.117188 4.1875 -5.226562 3.980469 -5.285156 C 3.558594 -5.40625 3.113281 -5.40625 2.652344 -5.28125 C 2.113281 -5.136719 1.632812 -4.875 1.214844 -4.503906 C 1.148438 -4.445312 1.082031 -4.378906 1.015625 -4.3125 C 0.855469 -4.15625 0.71875 -3.988281 0.601562 -3.8125 C 0.484375 -3.636719 0.378906 -3.453125 0.28125 -3.265625 Z M 1.714844 -2.484375 C 1.714844 -2.726562 1.78125 -2.898438 1.914062 -2.992188 C 2.042969 -3.089844 2.199219 -3.128906 2.371094 -3.105469 C 2.542969 -3.085938 2.710938 -3.011719 2.875 -2.886719 C 3.035156 -2.761719 3.152344 -2.609375 3.210938 -2.417969 C 3.265625 -2.25 3.269531 -2.089844 3.234375 -1.933594 C 3.199219 -1.78125 3.09375 -1.660156 2.917969 -1.570312 C 2.644531 -1.433594 2.375 -1.492188 2.109375 -1.746094 C 1.847656 -2 1.714844 -2.246094 1.714844 -2.484375 Z M 1.714844 -2.484375 "/></g></g><g transform="translate(38.55779, 18.701025)"><g><path d="M 1.953125 -5.460938 C 1.902344 -5.496094 1.8125 -5.53125 1.6875 -5.570312 C 1.585938 -5.589844 1.46875 -5.605469 1.34375 -5.617188 C 1.214844 -5.628906 1.101562 -5.621094 1.003906 -5.59375 C 0.914062 -5.570312 0.84375 -5.519531 0.777344 -5.441406 C 0.6875 -5.332031 0.613281 -5.1875 0.550781 -5.011719 C 0.46875 -4.804688 0.390625 -4.539062 0.324219 -4.207031 C 0.253906 -3.867188 0.195312 -3.519531 0.148438 -3.152344 C 0.105469 -2.789062 0.078125 -2.429688 0.0625 -2.082031 C 0.046875 -1.734375 0.0585938 -1.445312 0.09375 -1.214844 C 0.109375 -1.097656 0.136719 -0.972656 0.175781 -0.84375 C 0.214844 -0.710938 0.289062 -0.609375 0.390625 -0.535156 C 0.503906 -0.445312 0.75 -0.371094 1.132812 -0.308594 C 1.507812 -0.246094 1.710938 -0.332031 1.738281 -0.566406 C 1.742188 -0.628906 1.738281 -0.695312 1.726562 -0.761719 C 1.710938 -0.828125 1.703125 -0.894531 1.695312 -0.960938 C 1.625 -1.382812 1.601562 -1.851562 1.621094 -2.359375 C 1.644531 -2.867188 1.695312 -3.371094 1.785156 -3.863281 C 2.121094 -3.367188 2.414062 -2.882812 2.667969 -2.414062 C 2.917969 -1.945312 3.152344 -1.425781 3.355469 -0.847656 C 3.371094 -0.730469 3.398438 -0.613281 3.445312 -0.496094 C 3.484375 -0.375 3.554688 -0.277344 3.648438 -0.207031 C 3.703125 -0.164062 3.800781 -0.121094 3.945312 -0.078125 C 4.089844 -0.03125 4.234375 -0.00390625 4.386719 0.0117188 C 4.535156 0.0273438 4.671875 0.015625 4.792969 -0.0195312 C 4.914062 -0.0507812 4.980469 -0.128906 4.992188 -0.246094 C 4.996094 -0.304688 4.992188 -0.371094 4.980469 -0.4375 C 4.96875 -0.5 4.957031 -0.566406 4.949219 -0.632812 C 4.855469 -1.234375 4.84375 -1.910156 4.921875 -2.660156 C 4.996094 -3.40625 5.125 -4.089844 5.308594 -4.703125 C 5.359375 -4.878906 5.34375 -5.003906 5.273438 -5.078125 C 5.195312 -5.152344 5.085938 -5.207031 4.941406 -5.242188 C 4.839844 -5.265625 4.726562 -5.277344 4.597656 -5.289062 C 4.46875 -5.300781 4.355469 -5.292969 4.257812 -5.273438 C 4.171875 -5.246094 4.097656 -5.195312 4.035156 -5.113281 C 3.949219 -5.007812 3.871094 -4.863281 3.800781 -4.6875 C 3.742188 -4.546875 3.6875 -4.371094 3.636719 -4.160156 C 3.585938 -3.953125 3.542969 -3.730469 3.503906 -3.488281 C 3.160156 -4.03125 2.820312 -4.511719 2.484375 -4.9375 C 2.417969 -5.015625 2.347656 -5.09375 2.277344 -5.171875 C 2.207031 -5.25 2.136719 -5.320312 2.0625 -5.386719 C 2.027344 -5.414062 1.988281 -5.441406 1.953125 -5.460938 Z M 1.953125 -5.460938 "/></g></g><g transform="translate(44.210412, 18.701025)"><g><path d="M 0.101562 -4.832031 C 0.0507812 -4.773438 0.03125 -4.683594 0.0351562 -4.570312 C 0.0429688 -4.457031 0.0507812 -4.375 0.0585938 -4.316406 C 0.0664062 -4.09375 0.0976562 -3.878906 0.15625 -3.675781 C 0.1875 -3.554688 0.214844 -3.445312 0.246094 -3.359375 C 0.273438 -3.269531 0.355469 -3.195312 0.480469 -3.140625 C 0.617188 -3.074219 0.777344 -3.035156 0.945312 -3.03125 C 1.113281 -3.023438 1.273438 -3.015625 1.433594 -3.003906 C 1.511719 -2.996094 1.621094 -2.976562 1.75 -2.957031 C 1.878906 -2.929688 1.964844 -2.871094 2 -2.777344 C 2.066406 -2.609375 2.113281 -2.445312 2.152344 -2.296875 C 2.222656 -1.992188 2.277344 -1.683594 2.316406 -1.378906 C 2.351562 -1.066406 2.417969 -0.761719 2.511719 -0.464844 C 2.539062 -0.371094 2.578125 -0.265625 2.628906 -0.152344 C 2.65625 -0.0898438 2.707031 -0.0429688 2.785156 -0.0273438 C 2.859375 -0.0078125 2.925781 0 2.992188 0 C 3.148438 0 3.320312 -0.0195312 3.507812 -0.0546875 C 3.699219 -0.0898438 3.859375 -0.152344 3.988281 -0.25 C 4.078125 -0.316406 4.125 -0.421875 4.132812 -0.566406 C 4.140625 -0.839844 4.117188 -1.125 4.074219 -1.429688 C 4.03125 -1.730469 3.992188 -2.019531 3.964844 -2.292969 C 3.949219 -2.425781 3.921875 -2.585938 3.890625 -2.78125 C 3.855469 -2.976562 3.878906 -3.125 3.960938 -3.230469 C 4.035156 -3.332031 4.144531 -3.410156 4.28125 -3.46875 C 4.417969 -3.523438 4.542969 -3.574219 4.660156 -3.625 C 4.742188 -3.664062 4.839844 -3.707031 4.949219 -3.757812 C 5.054688 -3.808594 5.132812 -3.878906 5.175781 -3.972656 C 5.242188 -4.117188 5.25 -4.347656 5.203125 -4.660156 C 5.152344 -4.96875 5.082031 -5.195312 4.984375 -5.332031 C 4.902344 -5.449219 4.773438 -5.503906 4.605469 -5.480469 C 4.453125 -5.457031 4.308594 -5.421875 4.160156 -5.371094 C 4.015625 -5.320312 3.871094 -5.277344 3.726562 -5.25 C 3.277344 -5.15625 2.832031 -5.070312 2.386719 -4.984375 C 1.933594 -4.898438 1.484375 -4.859375 1.03125 -4.859375 C 0.808594 -4.859375 0.601562 -4.867188 0.402344 -4.894531 C 0.257812 -4.914062 0.152344 -4.890625 0.101562 -4.832031 Z M 0.101562 -4.832031 "/></g></g><g transform="translate(49.749468, 18.701025)"><g><path d="M 3.238281 -1.378906 C 3.339844 -1.035156 3.429688 -0.734375 3.496094 -0.460938 C 3.539062 -0.257812 3.617188 -0.144531 3.734375 -0.113281 C 3.847656 -0.0859375 3.984375 -0.09375 4.148438 -0.140625 C 4.257812 -0.167969 4.375 -0.210938 4.507812 -0.273438 C 4.632812 -0.332031 4.742188 -0.40625 4.828125 -0.492188 C 4.894531 -0.550781 4.941406 -0.640625 4.964844 -0.765625 C 4.980469 -0.914062 4.980469 -1.089844 4.949219 -1.308594 C 4.921875 -1.519531 4.839844 -1.847656 4.707031 -2.277344 C 4.574219 -2.710938 4.421875 -3.152344 4.238281 -3.605469 C 4.054688 -4.058594 3.855469 -4.472656 3.636719 -4.851562 C 3.421875 -5.222656 3.210938 -5.464844 3.015625 -5.574219 C 2.898438 -5.671875 2.726562 -5.738281 2.5 -5.773438 C 2.269531 -5.808594 2.085938 -5.8125 1.945312 -5.785156 C 1.804688 -5.753906 1.683594 -5.683594 1.582031 -5.570312 C 1.480469 -5.453125 1.390625 -5.339844 1.324219 -5.230469 C 1.179688 -5.011719 1.03125 -4.71875 0.882812 -4.359375 C 0.734375 -3.996094 0.59375 -3.621094 0.46875 -3.226562 C 0.34375 -2.832031 0.238281 -2.449219 0.152344 -2.078125 C 0.0664062 -1.703125 0.0195312 -1.394531 0.0078125 -1.152344 C 0 -1.066406 0 -0.972656 0.00390625 -0.878906 C 0.0078125 -0.785156 0.0234375 -0.695312 0.0429688 -0.613281 C 0.0703125 -0.5 0.121094 -0.410156 0.199219 -0.347656 C 0.285156 -0.273438 0.398438 -0.210938 0.535156 -0.160156 C 0.671875 -0.109375 0.796875 -0.078125 0.910156 -0.0585938 C 1.070312 -0.03125 1.207031 -0.03125 1.320312 -0.0703125 C 1.429688 -0.105469 1.503906 -0.226562 1.535156 -0.4375 C 1.5625 -0.648438 1.605469 -0.890625 1.664062 -1.15625 C 1.882812 -1.144531 2.152344 -1.160156 2.476562 -1.207031 C 2.800781 -1.253906 3.054688 -1.3125 3.238281 -1.378906 Z M 1.839844 -1.871094 C 1.992188 -2.429688 2.167969 -2.945312 2.375 -3.421875 C 2.609375 -2.976562 2.820312 -2.503906 3.011719 -2.011719 C 2.601562 -1.914062 2.210938 -1.863281 1.839844 -1.871094 Z M 3.25 -7.160156 C 3.1875 -7.222656 3.101562 -7.226562 3 -7.160156 C 2.574219 -6.882812 2.214844 -6.613281 1.917969 -6.339844 C 1.886719 -6.3125 1.882812 -6.273438 1.914062 -6.226562 C 2 -6.074219 2.109375 -5.96875 2.242188 -5.910156 C 2.328125 -5.863281 2.386719 -5.847656 2.433594 -5.863281 C 2.625 -5.925781 2.820312 -5.996094 3.015625 -6.0625 C 3.210938 -6.128906 3.394531 -6.207031 3.578125 -6.292969 C 3.667969 -6.335938 3.699219 -6.390625 3.675781 -6.460938 C 3.554688 -6.746094 3.410156 -6.984375 3.25 -7.160156 Z M 3.25 -7.160156 "/></g></g><g transform="translate(54.991789, 18.701025)"><g><path d="M 4.378906 -5.492188 C 4.101562 -5.550781 3.824219 -5.582031 3.539062 -5.582031 C 3.253906 -5.582031 2.972656 -5.5625 2.699219 -5.515625 C 2.371094 -5.460938 2.03125 -5.367188 1.679688 -5.234375 C 1.328125 -5.097656 1.019531 -4.898438 0.738281 -4.628906 C 0.183594 -4.09375 -0.0078125 -3.433594 0.160156 -2.636719 C 0.265625 -2.121094 0.472656 -1.652344 0.789062 -1.234375 C 0.957031 -1.003906 1.148438 -0.808594 1.371094 -0.652344 C 1.589844 -0.496094 1.824219 -0.371094 2.066406 -0.273438 C 2.371094 -0.148438 2.6875 -0.0742188 3.023438 -0.0429688 C 3.269531 -0.0234375 3.519531 -0.0234375 3.773438 -0.0429688 C 4.023438 -0.0664062 4.273438 -0.144531 4.523438 -0.273438 C 4.613281 -0.320312 4.703125 -0.378906 4.800781 -0.441406 C 4.929688 -0.539062 5.085938 -0.675781 5.261719 -0.855469 C 5.4375 -1.03125 5.441406 -1.207031 5.273438 -1.390625 C 4.976562 -1.699219 4.679688 -1.761719 4.386719 -1.582031 C 4.089844 -1.398438 3.804688 -1.296875 3.539062 -1.269531 C 3.1875 -1.234375 2.839844 -1.289062 2.503906 -1.429688 C 2.160156 -1.566406 1.9375 -1.796875 1.828125 -2.121094 C 1.675781 -2.558594 1.675781 -2.90625 1.824219 -3.167969 C 1.972656 -3.429688 2.1875 -3.625 2.464844 -3.746094 C 2.742188 -3.871094 3.039062 -3.9375 3.355469 -3.949219 C 3.671875 -3.960938 3.917969 -3.933594 4.101562 -3.875 C 4.191406 -3.847656 4.277344 -3.8125 4.371094 -3.785156 C 4.460938 -3.75 4.558594 -3.738281 4.652344 -3.738281 C 4.753906 -3.738281 4.863281 -3.835938 4.980469 -4.035156 C 5.054688 -4.167969 5.105469 -4.316406 5.136719 -4.472656 C 5.160156 -4.625 5.175781 -4.785156 5.175781 -4.941406 C 5.175781 -5.074219 5.097656 -5.191406 4.933594 -5.289062 C 4.796875 -5.371094 4.613281 -5.4375 4.378906 -5.492188 Z M 4.378906 -5.492188 "/></g></g><g transform="translate(60.651737, 18.701025)"><g><path d="M 0.101562 -4.832031 C 0.0507812 -4.773438 0.03125 -4.683594 0.0351562 -4.570312 C 0.0429688 -4.457031 0.0507812 -4.375 0.0585938 -4.316406 C 0.0664062 -4.09375 0.0976562 -3.878906 0.15625 -3.675781 C 0.1875 -3.554688 0.214844 -3.445312 0.246094 -3.359375 C 0.273438 -3.269531 0.355469 -3.195312 0.480469 -3.140625 C 0.617188 -3.074219 0.777344 -3.035156 0.945312 -3.03125 C 1.113281 -3.023438 1.273438 -3.015625 1.433594 -3.003906 C 1.511719 -2.996094 1.621094 -2.976562 1.75 -2.957031 C 1.878906 -2.929688 1.964844 -2.871094 2 -2.777344 C 2.066406 -2.609375 2.113281 -2.445312 2.152344 -2.296875 C 2.222656 -1.992188 2.277344 -1.683594 2.316406 -1.378906 C 2.351562 -1.066406 2.417969 -0.761719 2.511719 -0.464844 C 2.539062 -0.371094 2.578125 -0.265625 2.628906 -0.152344 C 2.65625 -0.0898438 2.707031 -0.0429688 2.785156 -0.0273438 C 2.859375 -0.0078125 2.925781 0 2.992188 0 C 3.148438 0 3.320312 -0.0195312 3.507812 -0.0546875 C 3.699219 -0.0898438 3.859375 -0.152344 3.988281 -0.25 C 4.078125 -0.316406 4.125 -0.421875 4.132812 -0.566406 C 4.140625 -0.839844 4.117188 -1.125 4.074219 -1.429688 C 4.03125 -1.730469 3.992188 -2.019531 3.964844 -2.292969 C 3.949219 -2.425781 3.921875 -2.585938 3.890625 -2.78125 C 3.855469 -2.976562 3.878906 -3.125 3.960938 -3.230469 C 4.035156 -3.332031 4.144531 -3.410156 4.28125 -3.46875 C 4.417969 -3.523438 4.542969 -3.574219 4.660156 -3.625 C 4.742188 -3.664062 4.839844 -3.707031 4.949219 -3.757812 C 5.054688 -3.808594 5.132812 -3.878906 5.175781 -3.972656 C 5.242188 -4.117188 5.25 -4.347656 5.203125 -4.660156 C 5.152344 -4.96875 5.082031 -5.195312 4.984375 -5.332031 C 4.902344 -5.449219 4.773438 -5.503906 4.605469 -5.480469 C 4.453125 -5.457031 4.308594 -5.421875 4.160156 -5.371094 C 4.015625 -5.320312 3.871094 -5.277344 3.726562 -5.25 C 3.277344 -5.15625 2.832031 -5.070312 2.386719 -4.984375 C 1.933594 -4.898438 1.484375 -4.859375 1.03125 -4.859375 C 0.808594 -4.859375 0.601562 -4.867188 0.402344 -4.894531 C 0.257812 -4.914062 0.152344 -4.890625 0.101562 -4.832031 Z M 0.101562 -4.832031 "/></g></g><g transform="translate(66.190793, 18.701025)"><g><path d="M 0.535156 -5.230469 C 0.445312 -5.1875 0.378906 -5.121094 0.324219 -5.03125 C 0.261719 -4.914062 0.207031 -4.753906 0.167969 -4.5625 C 0.125 -4.339844 0.101562 -4.0625 0.101562 -3.71875 C 0.101562 -3.375 0.117188 -3.019531 0.152344 -2.652344 C 0.1875 -2.285156 0.234375 -1.929688 0.300781 -1.585938 C 0.367188 -1.242188 0.441406 -0.960938 0.53125 -0.742188 C 0.574219 -0.625 0.632812 -0.507812 0.707031 -0.390625 C 0.78125 -0.273438 0.878906 -0.191406 1.011719 -0.140625 C 1.1875 -0.0664062 1.445312 -0.0390625 1.796875 -0.0625 C 2.144531 -0.0820312 2.425781 -0.0976562 2.644531 -0.113281 C 3.003906 -0.128906 3.351562 -0.160156 3.6875 -0.207031 C 4.027344 -0.25 4.304688 -0.304688 4.523438 -0.371094 C 4.671875 -0.414062 4.785156 -0.457031 4.867188 -0.5 C 4.992188 -0.566406 5.082031 -0.644531 5.132812 -0.734375 C 5.21875 -0.882812 5.25 -1.105469 5.226562 -1.40625 C 5.214844 -1.539062 5.183594 -1.652344 5.132812 -1.75 C 5.082031 -1.847656 4.996094 -1.894531 4.882812 -1.886719 C 4.828125 -1.878906 4.765625 -1.867188 4.695312 -1.851562 C 4.664062 -1.839844 4.628906 -1.828125 4.601562 -1.816406 C 4.570312 -1.800781 4.542969 -1.796875 4.511719 -1.789062 C 4.226562 -1.699219 3.917969 -1.625 3.585938 -1.566406 C 3.253906 -1.507812 2.914062 -1.46875 2.566406 -1.445312 C 2.476562 -1.4375 2.394531 -1.429688 2.328125 -1.421875 C 2.257812 -1.414062 2.195312 -1.410156 2.140625 -1.410156 C 2.066406 -1.640625 2.011719 -1.875 1.96875 -2.109375 C 2.300781 -2.136719 2.632812 -2.179688 2.972656 -2.246094 C 3.304688 -2.308594 3.511719 -2.394531 3.59375 -2.503906 C 3.660156 -2.59375 3.691406 -2.78125 3.691406 -3.066406 C 3.691406 -3.351562 3.582031 -3.496094 3.355469 -3.503906 C 3.242188 -3.503906 3.035156 -3.492188 2.738281 -3.460938 C 2.441406 -3.433594 2.128906 -3.394531 1.804688 -3.359375 C 1.785156 -3.636719 1.773438 -3.933594 1.78125 -4.242188 C 2.160156 -4.308594 2.535156 -4.347656 2.898438 -4.363281 C 3.257812 -4.378906 3.648438 -4.351562 4.070312 -4.285156 C 4.128906 -4.273438 4.191406 -4.265625 4.257812 -4.253906 C 4.324219 -4.238281 4.386719 -4.234375 4.449219 -4.242188 C 4.679688 -4.257812 4.765625 -4.433594 4.71875 -4.765625 C 4.671875 -5.097656 4.609375 -5.320312 4.527344 -5.421875 C 4.453125 -5.507812 4.355469 -5.570312 4.230469 -5.609375 C 4.105469 -5.644531 3.984375 -5.675781 3.871094 -5.691406 C 3.421875 -5.753906 2.914062 -5.746094 2.347656 -5.667969 C 1.785156 -5.585938 1.300781 -5.480469 0.902344 -5.347656 C 0.839844 -5.328125 0.777344 -5.304688 0.714844 -5.289062 C 0.648438 -5.273438 0.589844 -5.253906 0.535156 -5.230469 Z M 0.535156 -5.230469 "/></g></g><g transform="translate(71.715195, 18.701025)"><g><path d="M 1.953125 -5.460938 C 1.902344 -5.496094 1.8125 -5.53125 1.6875 -5.570312 C 1.585938 -5.589844 1.46875 -5.605469 1.34375 -5.617188 C 1.214844 -5.628906 1.101562 -5.621094 1.003906 -5.59375 C 0.914062 -5.570312 0.84375 -5.519531 0.777344 -5.441406 C 0.6875 -5.332031 0.613281 -5.1875 0.550781 -5.011719 C 0.46875 -4.804688 0.390625 -4.539062 0.324219 -4.207031 C 0.253906 -3.867188 0.195312 -3.519531 0.148438 -3.152344 C 0.105469 -2.789062 0.078125 -2.429688 0.0625 -2.082031 C 0.046875 -1.734375 0.0585938 -1.445312 0.09375 -1.214844 C 0.109375 -1.097656 0.136719 -0.972656 0.175781 -0.84375 C 0.214844 -0.710938 0.289062 -0.609375 0.390625 -0.535156 C 0.503906 -0.445312 0.75 -0.371094 1.132812 -0.308594 C 1.507812 -0.246094 1.710938 -0.332031 1.738281 -0.566406 C 1.742188 -0.628906 1.738281 -0.695312 1.726562 -0.761719 C 1.710938 -0.828125 1.703125 -0.894531 1.695312 -0.960938 C 1.625 -1.382812 1.601562 -1.851562 1.621094 -2.359375 C 1.644531 -2.867188 1.695312 -3.371094 1.785156 -3.863281 C 2.121094 -3.367188 2.414062 -2.882812 2.667969 -2.414062 C 2.917969 -1.945312 3.152344 -1.425781 3.355469 -0.847656 C 3.371094 -0.730469 3.398438 -0.613281 3.445312 -0.496094 C 3.484375 -0.375 3.554688 -0.277344 3.648438 -0.207031 C 3.703125 -0.164062 3.800781 -0.121094 3.945312 -0.078125 C 4.089844 -0.03125 4.234375 -0.00390625 4.386719 0.0117188 C 4.535156 0.0273438 4.671875 0.015625 4.792969 -0.0195312 C 4.914062 -0.0507812 4.980469 -0.128906 4.992188 -0.246094 C 4.996094 -0.304688 4.992188 -0.371094 4.980469 -0.4375 C 4.96875 -0.5 4.957031 -0.566406 4.949219 -0.632812 C 4.855469 -1.234375 4.84375 -1.910156 4.921875 -2.660156 C 4.996094 -3.40625 5.125 -4.089844 5.308594 -4.703125 C 5.359375 -4.878906 5.34375 -5.003906 5.273438 -5.078125 C 5.195312 -5.152344 5.085938 -5.207031 4.941406 -5.242188 C 4.839844 -5.265625 4.726562 -5.277344 4.597656 -5.289062 C 4.46875 -5.300781 4.355469 -5.292969 4.257812 -5.273438 C 4.171875 -5.246094 4.097656 -5.195312 4.035156 -5.113281 C 3.949219 -5.007812 3.871094 -4.863281 3.800781 -4.6875 C 3.742188 -4.546875 3.6875 -4.371094 3.636719 -4.160156 C 3.585938 -3.953125 3.542969 -3.730469 3.503906 -3.488281 C 3.160156 -4.03125 2.820312 -4.511719 2.484375 -4.9375 C 2.417969 -5.015625 2.347656 -5.09375 2.277344 -5.171875 C 2.207031 -5.25 2.136719 -5.320312 2.0625 -5.386719 C 2.027344 -5.414062 1.988281 -5.441406 1.953125 -5.460938 Z M 1.953125 -5.460938 "/></g></g><g transform="translate(77.367817, 18.701025)"><g><path d="M 0.28125 -3.265625 C 0.0898438 -2.878906 0 -2.453125 0.0195312 -1.988281 C 0.03125 -1.667969 0.09375 -1.382812 0.210938 -1.148438 C 0.328125 -0.898438 0.5 -0.691406 0.722656 -0.53125 C 0.941406 -0.371094 1.183594 -0.25 1.441406 -0.160156 C 1.777344 -0.0429688 2.125 0 2.488281 -0.03125 C 2.847656 -0.0664062 3.179688 -0.171875 3.488281 -0.355469 C 3.796875 -0.535156 4.074219 -0.757812 4.316406 -1.023438 C 4.476562 -1.199219 4.628906 -1.394531 4.78125 -1.621094 C 4.929688 -1.84375 5.042969 -2.074219 5.125 -2.308594 C 5.25 -2.695312 5.292969 -3.132812 5.257812 -3.617188 C 5.242188 -3.753906 5.214844 -3.894531 5.1875 -4.035156 C 5.15625 -4.175781 5.109375 -4.3125 5.042969 -4.4375 C 4.941406 -4.625 4.789062 -4.800781 4.589844 -4.960938 C 4.390625 -5.117188 4.1875 -5.226562 3.980469 -5.285156 C 3.558594 -5.40625 3.113281 -5.40625 2.652344 -5.28125 C 2.113281 -5.136719 1.632812 -4.875 1.214844 -4.503906 C 1.148438 -4.445312 1.082031 -4.378906 1.015625 -4.3125 C 0.855469 -4.15625 0.71875 -3.988281 0.601562 -3.8125 C 0.484375 -3.636719 0.378906 -3.453125 0.28125 -3.265625 Z M 1.714844 -2.484375 C 1.714844 -2.726562 1.78125 -2.898438 1.914062 -2.992188 C 2.042969 -3.089844 2.199219 -3.128906 2.371094 -3.105469 C 2.542969 -3.085938 2.710938 -3.011719 2.875 -2.886719 C 3.035156 -2.761719 3.152344 -2.609375 3.210938 -2.417969 C 3.265625 -2.25 3.269531 -2.089844 3.234375 -1.933594 C 3.199219 -1.78125 3.09375 -1.660156 2.917969 -1.570312 C 2.644531 -1.433594 2.375 -1.492188 2.109375 -1.746094 C 1.847656 -2 1.714844 -2.246094 1.714844 -2.484375 Z M 1.714844 -2.484375 "/></g></g><g transform="translate(82.94717, 18.701025)"><g><path d="M 3.324219 -3.035156 C 3.003906 -3.210938 2.824219 -3.3125 2.789062 -3.347656 C 2.328125 -3.644531 2.253906 -3.847656 2.566406 -3.953125 C 2.722656 -3.953125 2.863281 -3.945312 2.996094 -3.929688 L 3.257812 -3.863281 C 3.410156 -3.835938 3.566406 -3.796875 3.734375 -3.75 C 3.882812 -3.714844 4 -3.730469 4.082031 -3.792969 C 4.085938 -3.792969 4.09375 -3.800781 4.101562 -3.808594 C 4.199219 -3.890625 4.226562 -4.003906 4.191406 -4.152344 C 4.152344 -4.292969 4.101562 -4.40625 4.042969 -4.488281 C 4.035156 -4.503906 4.027344 -4.511719 4.019531 -4.519531 C 4.039062 -4.578125 3.992188 -4.632812 3.875 -4.683594 C 3.78125 -4.730469 3.695312 -4.769531 3.628906 -4.8125 C 3.558594 -4.847656 3.503906 -4.871094 3.464844 -4.886719 C 3.363281 -4.921875 3.25 -4.964844 3.121094 -5.003906 C 2.0625 -5.109375 1.292969 -4.96875 0.8125 -4.574219 C 0.539062 -4.351562 0.363281 -4.09375 0.28125 -3.792969 C 0.203125 -3.492188 0.261719 -3.195312 0.460938 -2.898438 C 0.542969 -2.769531 0.867188 -2.511719 1.433594 -2.125 C 1.824219 -1.855469 2.035156 -1.699219 2.070312 -1.664062 C 2.070312 -1.65625 2.074219 -1.648438 2.078125 -1.640625 C 2.082031 -1.632812 2.085938 -1.628906 2.09375 -1.625 C 2.152344 -1.507812 2.128906 -1.421875 2.015625 -1.355469 C 1.976562 -1.332031 1.949219 -1.320312 1.933594 -1.3125 C 1.609375 -1.242188 1.261719 -1.296875 0.894531 -1.472656 C 0.730469 -1.554688 0.582031 -1.648438 0.457031 -1.757812 C 0.449219 -1.761719 0.441406 -1.765625 0.4375 -1.769531 C 0.429688 -1.773438 0.425781 -1.78125 0.421875 -1.789062 C 0.371094 -1.832031 0.304688 -1.867188 0.230469 -1.90625 C 0.152344 -1.941406 0.09375 -1.914062 0.0585938 -1.816406 C 0.0234375 -1.730469 0 -1.621094 -0.0078125 -1.492188 C -0.015625 -1.359375 -0.0234375 -1.25 -0.0234375 -1.15625 L -0.0234375 -1.128906 C -0.0195312 -1.054688 0.0117188 -0.984375 0.0664062 -0.925781 C 0.0664062 -0.917969 0.0703125 -0.914062 0.0742188 -0.914062 C 0.078125 -0.90625 0.0820312 -0.902344 0.0898438 -0.902344 C 0.0898438 -0.894531 0.0898438 -0.886719 0.09375 -0.882812 L 0.109375 -0.871094 C 0.207031 -0.761719 0.324219 -0.664062 0.464844 -0.578125 L 1.164062 -0.257812 C 1.261719 -0.222656 1.382812 -0.195312 1.519531 -0.164062 C 1.503906 -0.136719 1.683594 -0.105469 2.074219 -0.0859375 L 2.078125 -0.0898438 C 2.078125 -0.0898438 2.078125 -0.0898438 2.082031 -0.09375 C 2.386719 -0.0820312 2.6875 -0.101562 2.976562 -0.164062 C 3.265625 -0.222656 3.507812 -0.324219 3.714844 -0.46875 C 4.023438 -0.679688 4.238281 -0.945312 4.359375 -1.261719 C 4.476562 -1.570312 4.472656 -1.855469 4.355469 -2.101562 C 4.238281 -2.351562 4.03125 -2.570312 3.730469 -2.753906 C 3.71875 -2.757812 3.707031 -2.765625 3.699219 -2.773438 Z M 3.324219 -3.035156 "/></g></g></g></svg>