<svg xmlns="http://www.w3.org/2000/svg" xmlns:xlink="http://www.w3.org/1999/xlink" width="150" zoomAndPan="magnify" viewBox="0 0 112.5 33.749998" height="45" preserveAspectRatio="xMidYMid meet" version="1.0"><defs><g/><clipPath id="235801dd0f"><path d="M 0.164062 0 L 111.839844 0 L 111.839844 33.5 L 0.164062 33.5 Z M 0.164062 0 " clip-rule="nonzero"/></clipPath></defs><g clip-path="url(#235801dd0f)"><path stroke-linecap="butt" transform="matrix(0.747794, 0, 0, 0.747794, 2.081667, 8.418168)" fill="none" stroke-linejoin="miter" d="M 8.901669 4.784641 L 8.901669 8.624059 L 11.16353 8.624059 C 11.680676 8.624059 12.030664 8.488243 12.208269 8.221834 C 12.391099 7.950202 12.479902 7.615886 12.479902 7.218884 L 12.479902 6.19504 C 12.479902 5.798039 12.391099 5.463722 12.208269 5.19209 C 12.030664 4.920457 11.680676 4.784641 11.16353 4.784641 Z M 7.825587 20.998999 L 3.197391 20.998999 C 2.816061 20.998999 2.544428 20.91542 2.372046 20.743038 C 2.204888 20.570656 2.121309 20.299024 2.121309 19.922918 L 2.121309 0.45942 C 2.121309 0.0780896 2.204888 -0.193543 2.372046 -0.365925 C 2.544428 -0.533083 2.816061 -0.621886 3.197391 -0.621886 L 13.200772 -0.621886 C 15.441738 -0.621886 16.987953 -0.151753 17.839416 0.778065 C 18.690878 1.707883 19.113998 2.914557 19.113998 4.392864 L 19.113998 5.77192 C 19.113998 6.612936 18.993853 7.328582 18.743115 7.91886 C 18.492378 8.514362 18.058811 8.937481 17.437191 9.198666 C 18.518496 9.318811 19.390854 9.762825 20.059487 10.525485 C 20.733344 11.282921 21.067661 12.291095 21.067661 13.550006 L 21.067661 19.922918 C 21.067661 20.299024 20.978858 20.570656 20.8117 20.743038 C 20.644541 20.91542 20.367685 20.998999 19.986355 20.998999 L 15.332041 20.998999 C 14.950711 20.998999 14.673855 20.91542 14.506696 20.743038 C 14.334314 20.570656 14.245511 20.299024 14.245511 19.922918 L 14.245511 15.326064 C 14.245511 14.887273 14.161932 14.55818 13.98955 14.349232 C 13.827616 14.140284 13.529865 14.03581 13.111969 14.03581 L 8.901669 14.03581 L 8.901669 19.922918 C 8.901669 20.299024 8.818089 20.570656 8.645707 20.743038 C 8.478549 20.91542 8.206917 20.998999 7.825587 20.998999 Z M 25.022 20.998999 C 24.645894 20.998999 24.369038 20.91542 24.196656 20.743038 C 24.024274 20.570656 23.940695 20.299024 23.940695 19.922918 L 23.940695 16.344685 C 23.940695 15.963355 24.024274 15.691722 24.196656 15.524564 C 24.369038 15.352182 24.645894 15.268603 25.022 15.268603 L 27.994284 15.268603 L 27.994284 5.171195 L 25.022 5.171195 C 24.645894 5.171195 24.369038 5.087616 24.196656 4.920457 C 24.024274 4.753299 23.940695 4.476443 23.940695 4.095113 L 23.940695 0.45942 C 23.940695 0.0780896 24.024274 -0.193543 24.196656 -0.365925 C 24.369038 -0.533083 24.645894 -0.621886 25.022 -0.621886 L 37.809612 -0.621886 C 38.190942 -0.621886 38.467798 -0.533083 38.64018 -0.365925 C 38.812562 -0.193543 38.896141 0.0780896 38.896141 0.45942 L 38.896141 4.095113 C 38.896141 4.476443 38.812562 4.753299 38.64018 4.920457 C 38.467798 5.087616 38.190942 5.171195 37.809612 5.171195 L 34.900013 5.171195 L 34.900013 15.268603 L 37.809612 15.268603 C 38.190942 15.268603 38.467798 15.352182 38.64018 15.524564 C 38.812562 15.691722 38.896141 15.963355 38.896141 16.344685 L 38.896141 19.922918 C 38.896141 20.299024 38.812562 20.570656 38.64018 20.743038 C 38.467798 20.91542 38.190942 20.998999 37.809612 20.998999 Z M 56.964912 20.998999 L 49.636064 20.998999 C 47.133913 20.998999 45.274277 20.497524 44.062379 19.494574 C 42.855704 18.496848 42.254979 16.950634 42.254979 14.871602 L 42.254979 5.536854 C 42.254979 3.457822 42.855704 1.906384 44.062379 0.89821 C 45.274277 -0.115187 47.133913 -0.621886 49.636064 -0.621886 L 56.964912 -0.621886 C 57.346242 -0.621886 57.617874 -0.533083 57.790257 -0.365925 C 57.957415 -0.193543 58.046218 0.0780896 58.046218 0.45942 L 58.046218 4.095113 C 58.046218 4.476443 57.957415 4.753299 57.790257 4.920457 C 57.617874 5.087616 57.346242 5.171195 56.964912 5.171195 L 50.926318 5.171195 C 50.304698 5.171195 49.845012 5.296564 49.542038 5.552525 C 49.244287 5.803262 49.0928 6.174145 49.0928 6.67562 L 49.0928 13.821639 C 49.0928 14.323114 49.244287 14.688772 49.542038 14.923839 C 49.845012 15.153681 50.304698 15.268603 50.926318 15.268603 L 56.964912 15.268603 C 57.346242 15.268603 57.617874 15.352182 57.790257 15.524564 C 57.957415 15.691722 58.046218 15.963355 58.046218 16.344685 L 58.046218 19.922918 C 58.046218 20.299024 57.957415 20.570656 57.790257 20.743038 C 57.617874 20.91542 57.346242 20.998999 56.964912 20.998999 Z M 79.745458 15.326064 C 79.745458 16.245434 79.614866 17.081226 79.343234 17.833438 C 79.076825 18.580427 78.591021 19.222942 77.901493 19.755759 C 77.211965 20.288576 76.261252 20.701249 75.049354 20.998999 C 73.837456 21.29675 72.296465 21.448237 70.436829 21.448237 C 68.571969 21.448237 67.030978 21.29675 65.808633 20.998999 C 64.591511 20.701249 63.635574 20.288576 62.940823 19.755759 C 62.251294 19.222942 61.775938 18.580427 61.504306 17.833438 C 61.237897 17.081226 61.102081 16.245434 61.102081 15.326064 L 61.102081 5.082392 C 61.102081 4.163021 61.237897 3.332453 61.504306 2.585465 C 61.775938 1.828028 62.251294 1.18029 62.940823 0.642249 C 63.635574 0.0989844 64.591511 -0.324135 65.808633 -0.621886 C 67.030978 -0.92486 68.571969 -1.076348 70.436829 -1.076348 C 72.296465 -1.076348 73.837456 -0.92486 75.049354 -0.621886 C 76.261252 -0.324135 77.211965 0.0989844 77.901493 0.642249 C 78.591021 1.18029 79.076825 1.828028 79.343234 2.585465 C 79.614866 3.332453 79.745458 4.163021 79.745458 5.082392 Z M 67.913783 14.239534 C 67.913783 14.641759 68.06527 14.976076 68.363021 15.252932 C 68.665995 15.51934 69.355523 15.655156 70.436829 15.655156 C 71.523358 15.655156 72.212886 15.51934 72.510637 15.252932 C 72.808388 14.976076 72.959875 14.641759 72.959875 14.239534 L 72.959875 6.168921 C 72.959875 5.787591 72.808388 5.463722 72.510637 5.19209 C 72.212886 4.920457 71.523358 4.784641 70.436829 4.784641 C 69.355523 4.784641 68.665995 4.920457 68.363021 5.19209 C 68.06527 5.463722 67.913783 5.787591 67.913783 6.168921 Z M 97.939598 20.998999 L 90.605526 20.998999 C 88.103375 20.998999 86.248962 20.497524 85.037064 19.494574 C 83.83039 18.496848 83.224441 16.950634 83.224441 14.871602 L 83.224441 5.536854 C 83.224441 3.457822 83.83039 1.906384 85.037064 0.89821 C 86.248962 -0.115187 88.103375 -0.621886 90.605526 -0.621886 L 97.939598 -0.621886 C 98.315704 -0.621886 98.587337 -0.533083 98.759719 -0.365925 C 98.932101 -0.193543 99.01568 0.0780896 99.01568 0.45942 L 99.01568 4.095113 C 99.01568 4.476443 98.932101 4.753299 98.759719 4.920457 C 98.587337 5.087616 98.315704 5.171195 97.939598 5.171195 L 91.89578 5.171195 C 91.279383 5.171195 90.814474 5.296564 90.5115 5.552525 C 90.213749 5.803262 90.062262 6.174145 90.062262 6.67562 L 90.062262 13.821639 C 90.062262 14.323114 90.213749 14.688772 90.5115 14.923839 C 90.814474 15.153681 91.279383 15.268603 91.89578 15.268603 L 97.939598 15.268603 C 98.315704 15.268603 98.587337 15.352182 98.759719 15.524564 C 98.932101 15.691722 99.01568 15.963355 99.01568 16.344685 L 99.01568 19.922918 C 99.01568 20.299024 98.932101 20.570656 98.759719 20.743038 C 98.587337 20.91542 98.315704 20.998999 97.939598 20.998999 Z M 110.241406 5.683117 L 108.825784 10.253853 L 113.542783 10.253853 L 112.132385 5.683117 C 112.048806 5.505512 111.960003 5.374919 111.8712 5.296564 C 111.782397 5.212985 111.677923 5.171195 111.563002 5.171195 L 110.816013 5.171195 C 110.690644 5.171195 110.58617 5.212985 110.492144 5.296564 C 110.403341 5.374919 110.319762 5.505512 110.241406 5.683117 Z M 108.528033 19.922918 C 108.528033 20.299024 108.439231 20.570656 108.266849 20.743038 C 108.104914 20.91542 107.828058 20.998999 107.446728 20.998999 L 103.032703 20.998999 C 102.651373 20.998999 102.379741 20.91542 102.207359 20.743038 C 102.034977 20.570656 101.951398 20.299024 101.951398 19.922918 L 101.951398 11.988121 C 101.951398 11.387395 102.045424 10.697867 102.233478 9.919536 C 102.426754 9.141205 102.719281 8.227058 103.121506 7.187542 L 105.733355 0.370617 C 105.8535 0.0258526 106.041553 -0.224885 106.292291 -0.376372 C 106.537805 -0.538307 106.861674 -0.621886 107.263899 -0.621886 L 115.344959 -0.621886 C 115.726289 -0.621886 116.039711 -0.538307 116.290448 -0.376372 C 116.541186 -0.224885 116.724015 0.0258526 116.849384 0.370617 L 119.456009 7.187542 C 119.858234 8.227058 120.155985 9.141205 120.344038 9.919536 C 120.537315 10.697867 120.631341 11.387395 120.631341 11.988121 L 120.631341 19.922918 C 120.631341 20.299024 120.542538 20.570656 120.37538 20.743038 C 120.202998 20.91542 119.926142 20.998999 119.544812 20.998999 L 115.015866 20.998999 C 114.613641 20.998999 114.315891 20.91542 114.127838 20.743038 C 113.934561 20.570656 113.840534 20.299024 113.840534 19.922918 L 113.840534 15.712617 L 108.528033 15.712617 Z M 129.892958 20.998999 L 125.395354 20.998999 C 125.014024 20.998999 124.737168 20.91542 124.564786 20.743038 C 124.397627 20.570656 124.314048 20.299024 124.314048 19.922918 L 124.314048 0.45942 C 124.314048 0.0780896 124.397627 -0.193543 124.564786 -0.365925 C 124.737168 -0.533083 125.014024 -0.621886 125.395354 -0.621886 L 128.519125 -0.621886 C 128.900455 -0.621886 129.224324 -0.559202 129.490733 -0.439057 C 129.762365 -0.318911 130.028774 -0.109964 130.289959 0.187787 L 136.114382 6.858449 L 136.114382 0.45942 C 136.114382 0.0780896 136.197961 -0.193543 136.370343 -0.365925 C 136.537501 -0.533083 136.814357 -0.621886 137.195687 -0.621886 L 141.698515 -0.621886 C 142.079845 -0.621886 142.356701 -0.533083 142.529083 -0.365925 C 142.696241 -0.193543 142.785044 0.0780896 142.785044 0.45942 L 142.785044 19.922918 C 142.785044 20.299024 142.696241 20.570656 142.529083 20.743038 C 142.356701 20.91542 142.079845 20.998999 141.698515 20.998999 L 137.195687 20.998999 C 136.814357 20.998999 136.537501 20.91542 136.370343 20.743038 C 136.197961 20.570656 136.114382 20.299024 136.114382 19.922918 L 136.114382 16.229763 L 130.979487 10.008339 L 130.979487 19.922918 C 130.979487 20.299024 130.895908 20.570656 130.723526 20.743038 C 130.551143 20.91542 130.274288 20.998999 129.892958 20.998999 Z M 129.892958 20.998999 " stroke="#e60000" stroke-width="2.365067" stroke-opacity="1" stroke-miterlimit="4"/></g><g fill="#efeaea" fill-opacity="1"><g transform="translate(2.11672, 24.121842)"><g><path d="M 6.625 -12.125 L 6.625 -9.25 L 8.3125 -9.25 C 8.695312 -9.25 8.957031 -9.347656 9.09375 -9.546875 C 9.226562 -9.753906 9.296875 -10.007812 9.296875 -10.3125 L 9.296875 -11.0625 C 9.296875 -11.363281 9.226562 -11.613281 9.09375 -11.8125 C 8.957031 -12.019531 8.695312 -12.125 8.3125 -12.125 Z M 5.8125 0 L 2.359375 0 C 2.078125 0 1.867188 -0.0625 1.734375 -0.1875 C 1.609375 -0.3125 1.546875 -0.519531 1.546875 -0.8125 L 1.546875 -15.359375 C 1.546875 -15.640625 1.609375 -15.84375 1.734375 -15.96875 C 1.867188 -16.101562 2.078125 -16.171875 2.359375 -16.171875 L 9.828125 -16.171875 C 11.503906 -16.171875 12.660156 -15.820312 13.296875 -15.125 C 13.929688 -14.425781 14.25 -13.523438 14.25 -12.421875 L 14.25 -11.390625 C 14.25 -10.753906 14.15625 -10.210938 13.96875 -9.765625 C 13.789062 -9.328125 13.46875 -9.015625 13 -8.828125 C 13.8125 -8.734375 14.46875 -8.398438 14.96875 -7.828125 C 15.46875 -7.265625 15.71875 -6.507812 15.71875 -5.5625 L 15.71875 -0.8125 C 15.71875 -0.519531 15.648438 -0.3125 15.515625 -0.1875 C 15.390625 -0.0625 15.1875 0 14.90625 0 L 11.421875 0 C 11.140625 0 10.9375 -0.0625 10.8125 -0.1875 C 10.6875 -0.3125 10.625 -0.519531 10.625 -0.8125 L 10.625 -4.25 C 10.625 -4.570312 10.554688 -4.8125 10.421875 -4.96875 C 10.296875 -5.125 10.078125 -5.203125 9.765625 -5.203125 L 6.625 -5.203125 L 6.625 -0.8125 C 6.625 -0.519531 6.554688 -0.3125 6.421875 -0.1875 C 6.296875 -0.0625 6.09375 0 5.8125 0 Z M 5.8125 0 "/></g></g></g><g fill="#efeaea" fill-opacity="1"><g transform="translate(18.793772, 24.121842)"><g><path d="M 2 0 C 1.71875 0 1.507812 -0.0625 1.375 -0.1875 C 1.25 -0.3125 1.1875 -0.519531 1.1875 -0.8125 L 1.1875 -3.484375 C 1.1875 -3.765625 1.25 -3.96875 1.375 -4.09375 C 1.507812 -4.21875 1.71875 -4.28125 2 -4.28125 L 4.21875 -4.28125 L 4.21875 -11.828125 L 2 -11.828125 C 1.71875 -11.828125 1.507812 -11.890625 1.375 -12.015625 C 1.25 -12.148438 1.1875 -12.359375 1.1875 -12.640625 L 1.1875 -15.359375 C 1.1875 -15.640625 1.25 -15.84375 1.375 -15.96875 C 1.507812 -16.101562 1.71875 -16.171875 2 -16.171875 L 11.5625 -16.171875 C 11.84375 -16.171875 12.046875 -16.101562 12.171875 -15.96875 C 12.304688 -15.84375 12.375 -15.640625 12.375 -15.359375 L 12.375 -12.640625 C 12.375 -12.359375 12.304688 -12.148438 12.171875 -12.015625 C 12.046875 -11.890625 11.84375 -11.828125 11.5625 -11.828125 L 9.390625 -11.828125 L 9.390625 -4.28125 L 11.5625 -4.28125 C 11.84375 -4.28125 12.046875 -4.21875 12.171875 -4.09375 C 12.304688 -3.96875 12.375 -3.765625 12.375 -3.484375 L 12.375 -0.8125 C 12.375 -0.519531 12.304688 -0.3125 12.171875 -0.1875 C 12.046875 -0.0625 11.84375 0 11.5625 0 Z M 2 0 "/></g></g></g><g fill="#efeaea" fill-opacity="1"><g transform="translate(32.373338, 24.121842)"><g><path d="M 12.296875 0 L 6.828125 0 C 4.953125 0 3.5625 -0.375 2.65625 -1.125 C 1.75 -1.875 1.296875 -3.023438 1.296875 -4.578125 L 1.296875 -11.5625 C 1.296875 -13.125 1.75 -14.28125 2.65625 -15.03125 C 3.5625 -15.789062 4.953125 -16.171875 6.828125 -16.171875 L 12.296875 -16.171875 C 12.585938 -16.171875 12.796875 -16.101562 12.921875 -15.96875 C 13.046875 -15.84375 13.109375 -15.640625 13.109375 -15.359375 L 13.109375 -12.640625 C 13.109375 -12.359375 13.046875 -12.148438 12.921875 -12.015625 C 12.796875 -11.890625 12.585938 -11.828125 12.296875 -11.828125 L 7.796875 -11.828125 C 7.328125 -11.828125 6.976562 -11.734375 6.75 -11.546875 C 6.53125 -11.359375 6.421875 -11.078125 6.421875 -10.703125 L 6.421875 -5.359375 C 6.421875 -4.992188 6.53125 -4.722656 6.75 -4.546875 C 6.976562 -4.367188 7.328125 -4.28125 7.796875 -4.28125 L 12.296875 -4.28125 C 12.585938 -4.28125 12.796875 -4.21875 12.921875 -4.09375 C 13.046875 -3.96875 13.109375 -3.765625 13.109375 -3.484375 L 13.109375 -0.8125 C 13.109375 -0.519531 13.046875 -0.3125 12.921875 -0.1875 C 12.796875 -0.0625 12.585938 0 12.296875 0 Z M 12.296875 0 "/></g></g></g><g fill="#efeaea" fill-opacity="1"><g transform="translate(46.469157, 24.121842)"><g><path d="M 15.25 -4.25 C 15.25 -3.550781 15.144531 -2.921875 14.9375 -2.359375 C 14.738281 -1.804688 14.378906 -1.332031 13.859375 -0.9375 C 13.347656 -0.539062 12.640625 -0.226562 11.734375 0 C 10.828125 0.226562 9.675781 0.34375 8.28125 0.34375 C 6.894531 0.34375 5.742188 0.226562 4.828125 0 C 3.910156 -0.226562 3.191406 -0.539062 2.671875 -0.9375 C 2.160156 -1.332031 1.800781 -1.804688 1.59375 -2.359375 C 1.394531 -2.921875 1.296875 -3.550781 1.296875 -4.25 L 1.296875 -11.90625 C 1.296875 -12.59375 1.394531 -13.210938 1.59375 -13.765625 C 1.800781 -14.328125 2.160156 -14.8125 2.671875 -15.21875 C 3.191406 -15.625 3.910156 -15.9375 4.828125 -16.15625 C 5.742188 -16.382812 6.894531 -16.5 8.28125 -16.5 C 9.675781 -16.5 10.828125 -16.382812 11.734375 -16.15625 C 12.640625 -15.9375 13.347656 -15.625 13.859375 -15.21875 C 14.378906 -14.8125 14.738281 -14.328125 14.9375 -13.765625 C 15.144531 -13.210938 15.25 -12.59375 15.25 -11.90625 Z M 6.40625 -5.046875 C 6.40625 -4.753906 6.515625 -4.503906 6.734375 -4.296875 C 6.960938 -4.097656 7.476562 -4 8.28125 -4 C 9.09375 -4 9.609375 -4.097656 9.828125 -4.296875 C 10.054688 -4.503906 10.171875 -4.753906 10.171875 -5.046875 L 10.171875 -11.09375 C 10.171875 -11.375 10.054688 -11.613281 9.828125 -11.8125 C 9.609375 -12.019531 9.09375 -12.125 8.28125 -12.125 C 7.476562 -12.125 6.960938 -12.019531 6.734375 -11.8125 C 6.515625 -11.613281 6.40625 -11.375 6.40625 -11.09375 Z M 6.40625 -5.046875 "/></g></g></g><g fill="#efeaea" fill-opacity="1"><g transform="translate(63.011544, 24.121842)"><g><path d="M 12.296875 0 L 6.828125 0 C 4.953125 0 3.5625 -0.375 2.65625 -1.125 C 1.75 -1.875 1.296875 -3.023438 1.296875 -4.578125 L 1.296875 -11.5625 C 1.296875 -13.125 1.75 -14.28125 2.65625 -15.03125 C 3.5625 -15.789062 4.953125 -16.171875 6.828125 -16.171875 L 12.296875 -16.171875 C 12.585938 -16.171875 12.796875 -16.101562 12.921875 -15.96875 C 13.046875 -15.84375 13.109375 -15.640625 13.109375 -15.359375 L 13.109375 -12.640625 C 13.109375 -12.359375 13.046875 -12.148438 12.921875 -12.015625 C 12.796875 -11.890625 12.585938 -11.828125 12.296875 -11.828125 L 7.796875 -11.828125 C 7.328125 -11.828125 6.976562 -11.734375 6.75 -11.546875 C 6.53125 -11.359375 6.421875 -11.078125 6.421875 -10.703125 L 6.421875 -5.359375 C 6.421875 -4.992188 6.53125 -4.722656 6.75 -4.546875 C 6.976562 -4.367188 7.328125 -4.28125 7.796875 -4.28125 L 12.296875 -4.28125 C 12.585938 -4.28125 12.796875 -4.21875 12.921875 -4.09375 C 13.046875 -3.96875 13.109375 -3.765625 13.109375 -3.484375 L 13.109375 -0.8125 C 13.109375 -0.519531 13.046875 -0.3125 12.921875 -0.1875 C 12.796875 -0.0625 12.585938 0 12.296875 0 Z M 12.296875 0 "/></g></g></g><g fill="#efeaea" fill-opacity="1"><g transform="translate(77.107363, 24.121842)"><g><path d="M 7.40625 -11.453125 L 6.359375 -8.03125 L 9.875 -8.03125 L 8.828125 -11.453125 C 8.765625 -11.585938 8.695312 -11.679688 8.625 -11.734375 C 8.5625 -11.796875 8.484375 -11.828125 8.390625 -11.828125 L 7.84375 -11.828125 C 7.75 -11.828125 7.664062 -11.796875 7.59375 -11.734375 C 7.53125 -11.679688 7.46875 -11.585938 7.40625 -11.453125 Z M 6.125 -0.8125 C 6.125 -0.519531 6.0625 -0.3125 5.9375 -0.1875 C 5.8125 -0.0625 5.609375 0 5.328125 0 L 2.015625 0 C 1.734375 0 1.53125 -0.0625 1.40625 -0.1875 C 1.28125 -0.3125 1.21875 -0.519531 1.21875 -0.8125 L 1.21875 -6.734375 C 1.21875 -7.179688 1.285156 -7.695312 1.421875 -8.28125 C 1.566406 -8.863281 1.789062 -9.546875 2.09375 -10.328125 L 4.046875 -15.421875 C 4.128906 -15.679688 4.265625 -15.867188 4.453125 -15.984375 C 4.640625 -16.109375 4.882812 -16.171875 5.1875 -16.171875 L 11.21875 -16.171875 C 11.507812 -16.171875 11.75 -16.109375 11.9375 -15.984375 C 12.125 -15.867188 12.257812 -15.679688 12.34375 -15.421875 L 14.296875 -10.328125 C 14.597656 -9.546875 14.816406 -8.863281 14.953125 -8.28125 C 15.097656 -7.695312 15.171875 -7.179688 15.171875 -6.734375 L 15.171875 -0.8125 C 15.171875 -0.519531 15.109375 -0.3125 14.984375 -0.1875 C 14.859375 -0.0625 14.65625 0 14.375 0 L 10.984375 0 C 10.679688 0 10.457031 -0.0625 10.3125 -0.1875 C 10.175781 -0.3125 10.109375 -0.519531 10.109375 -0.8125 L 10.109375 -3.953125 L 6.125 -3.953125 Z M 6.125 -0.8125 "/></g></g></g><g fill="#efeaea" fill-opacity="1"><g transform="translate(93.492629, 24.121842)"><g><path d="M 5.71875 0 L 2.359375 0 C 2.078125 0 1.867188 -0.0625 1.734375 -0.1875 C 1.609375 -0.3125 1.546875 -0.519531 1.546875 -0.8125 L 1.546875 -15.359375 C 1.546875 -15.640625 1.609375 -15.84375 1.734375 -15.96875 C 1.867188 -16.101562 2.078125 -16.171875 2.359375 -16.171875 L 4.6875 -16.171875 C 4.976562 -16.171875 5.222656 -16.125 5.421875 -16.03125 C 5.617188 -15.9375 5.816406 -15.78125 6.015625 -15.5625 L 10.375 -10.578125 L 10.375 -15.359375 C 10.375 -15.640625 10.4375 -15.84375 10.5625 -15.96875 C 10.6875 -16.101562 10.894531 -16.171875 11.1875 -16.171875 L 14.546875 -16.171875 C 14.828125 -16.171875 15.03125 -16.101562 15.15625 -15.96875 C 15.289062 -15.84375 15.359375 -15.640625 15.359375 -15.359375 L 15.359375 -0.8125 C 15.359375 -0.519531 15.289062 -0.3125 15.15625 -0.1875 C 15.03125 -0.0625 14.828125 0 14.546875 0 L 11.1875 0 C 10.894531 0 10.6875 -0.0625 10.5625 -0.1875 C 10.4375 -0.3125 10.375 -0.519531 10.375 -0.8125 L 10.375 -3.5625 L 6.53125 -8.21875 L 6.53125 -0.8125 C 6.53125 -0.519531 6.46875 -0.3125 6.34375 -0.1875 C 6.21875 -0.0625 6.007812 0 5.71875 0 Z M 5.71875 0 "/></g></g></g></svg>